<svg width="96" height="96" viewBox="0 0 96 96" fill="none" xmlns="http://www.w3.org/2000/svg">
<path d="M9.6 95C9.01634 95 8.4878 95 8.00358 94.9966L7.99659 95.9966C6.64156 95.9871 5.62398 95.9514 4.80088 95.8166L4.96254 94.8297C4.44649 94.7452 4.0599 94.6231 3.73005 94.455C3.49554 94.3355 3.27199 94.1983 3.06107 94.0451L2.47328 94.8541C1.96395 94.484 1.51595 94.0361 1.14589 93.5267L1.95491 92.9389C1.80166 92.728 1.66445 92.5045 1.54497 92.27C1.3769 91.9401 1.25481 91.5535 1.17028 91.0375L0.183428 91.1991C0.0485974 90.376 0.0128754 89.3584 0.00341119 88.0034L1.00339 87.9964C1 87.5122 1 86.9837 1 86.4V84H0V79.2H1V74.4H0V69.6H1V64.8H0V60H1V55.2H0V50.4H1V45.6H0V40.8H1V36H0V31.2H1V26.4H0V21.6H1V16.8H0V12H1V9.6C1 9.01634 1 8.4878 1.00339 8.00358L0.00341119 7.99659C0.0128754 6.64156 0.0485975 5.62398 0.183429 4.80088L1.17028 4.96254C1.25481 4.44649 1.3769 4.0599 1.54497 3.73005C1.66445 3.49554 1.80166 3.27199 1.95491 3.06107L1.14589 2.47328C1.51595 1.96395 1.96395 1.51595 2.47328 1.14589L3.06107 1.95491C3.27199 1.80166 3.49554 1.66445 3.73005 1.54497C4.0599 1.3769 4.44649 1.25481 4.96254 1.17028L4.80088 0.183429C5.62398 0.0485975 6.64156 0.0128754 7.99659 0.0034112L8.00358 1.00339C8.48781 1 9.01635 1 9.6 1H12V0H16.8V1H21.6V0H26.4V1H31.2V0H36V1H40.8V0H45.6V1H50.4V0H55.2V1H60V0H64.8V1H69.6V0H74.4V1H79.2V0H84V1H86.4C86.9837 1 87.5122 1 87.9964 1.00339L88.0034 0.00341119C89.3584 0.0128754 90.376 0.0485974 91.1991 0.183428L91.0375 1.17028C91.5535 1.25481 91.9401 1.3769 92.27 1.54497C92.5045 1.66445 92.728 1.80166 92.9389 1.95491L93.5267 1.14589C94.0361 1.51595 94.484 1.96395 94.8541 2.47328L94.0451 3.06107C94.1983 3.27199 94.3355 3.49554 94.455 3.73005C94.6231 4.0599 94.7452 4.44649 94.8297 4.96254L95.8166 4.80088C95.9514 5.62398 95.9871 6.64156 95.9966 7.99659L94.9966 8.00358C95 8.48781 95 9.01635 95 9.6V12H96V16.8H95V21.6H96V26.4H95V31.2H96V36H95V40.8H96V45.6H95V50.4H96V55.2H95V60H96V64.8H95V67.2C95 68.0363 95 68.8371 94.9989 69.6052L95.9989 69.6067C95.9963 71.3707 95.9878 72.9639 95.96 74.4126L94.9602 74.3934C94.9256 76.1907 94.8612 77.7491 94.7424 79.1276L95.7387 79.2134C95.581 81.0439 95.328 82.5821 94.9223 83.941L93.9641 83.6549C93.7418 84.3995 93.4727 85.0788 93.1471 85.7178C92.7409 86.5151 92.2744 87.2752 91.7533 87.9924L92.5623 88.5801C91.4521 90.1082 90.1082 91.4521 88.5801 92.5623L87.9924 91.7533C87.2752 92.2744 86.5151 92.7409 85.7178 93.1471C85.0788 93.4727 84.3995 93.7418 83.6549 93.9641L83.941 94.9223C82.5821 95.328 81.0439 95.581 79.2134 95.7387L79.1276 94.7424C77.7491 94.8612 76.1907 94.9256 74.3934 94.9602L74.4126 95.96C72.9639 95.9878 71.3707 95.9963 69.6067 95.9989L69.6052 94.9989C68.8371 95 68.0363 95 67.2 95H64.8V96H60V95H55.2V96H50.4V95H45.6V96H40.8V95H36V96H31.2V95H26.4V96H21.6V95H16.8V96H12V95H9.6Z" fill="white"/>
<g clip-path="url(#clip0_0_138)">
<path d="M27.1666 47.9999C27.1666 46.1979 27.3958 44.452 27.825 42.7833C28.9759 42.8438 30.1212 42.5848 31.1342 42.0351C32.1472 41.4853 32.9885 40.6662 33.565 39.6682C34.1415 38.6702 34.4308 37.5322 34.4009 36.38C34.3711 35.2278 34.0232 34.1063 33.3958 33.1395C35.9144 30.6615 39.0224 28.8656 42.427 27.9208C42.9499 28.9488 43.7471 29.8122 44.7303 30.4152C45.7136 31.0182 46.8445 31.3373 47.9979 31.3373C49.1513 31.3373 50.2822 31.0182 51.2654 30.4152C52.2486 29.8122 53.0458 28.9488 53.5687 27.9208C56.9733 28.8656 60.0813 30.6615 62.6 33.1395C61.9718 34.1065 61.6234 35.2284 61.5934 36.3811C61.5633 37.5338 61.8527 38.6724 62.4295 39.6708C63.0064 40.6692 63.8482 41.4886 64.8618 42.0383C65.8755 42.588 67.0214 42.8465 68.1729 42.7854C68.602 44.452 68.8312 46.1979 68.8312 47.9999C68.8312 49.802 68.602 51.5479 68.1729 53.2166C67.0217 53.1557 65.8762 53.4143 64.8629 53.9639C63.8496 54.5135 63.008 55.3327 62.4312 56.3307C61.8544 57.3288 61.5649 58.467 61.5947 59.6193C61.6245 60.7717 61.9724 61.8934 62.6 62.8604C60.0813 65.3383 56.9733 67.1343 53.5687 68.0791C53.0458 67.051 52.2486 66.1877 51.2654 65.5847C50.2822 64.9817 49.1513 64.6625 47.9979 64.6625C46.8445 64.6625 45.7136 64.9817 44.7303 65.5847C43.7471 66.1877 42.9499 67.051 42.427 68.0791C39.0224 67.1343 35.9144 65.3383 33.3958 62.8604C34.0239 61.8934 34.3723 60.7715 34.4024 59.6188C34.4325 58.4661 34.1431 57.3275 33.5662 56.3291C32.9894 55.3307 32.1476 54.5113 31.1339 53.9616C30.1203 53.4119 28.9743 53.1533 27.8229 53.2145C27.3958 51.5499 27.1666 49.8041 27.1666 47.9999ZM37.175 54.2499C38.4875 56.5229 38.8625 59.1374 38.35 61.5916C39.2 62.1958 40.1041 62.7187 41.052 63.1541C42.9618 61.4434 45.436 60.4982 48 60.4999C50.625 60.4999 53.0791 61.4812 54.9479 63.1541C55.8958 62.7187 56.8 62.1958 57.65 61.5916C57.1238 59.0832 57.5422 56.4688 58.825 54.2499C60.1054 52.0299 62.1604 50.3607 64.5958 49.5624C64.6921 48.523 64.6921 47.4769 64.5958 46.4374C62.1596 45.6397 60.1039 43.9704 58.8229 41.7499C57.5401 39.531 57.1217 36.9167 57.6479 34.4083C56.7981 33.8039 55.8934 33.2808 54.9458 32.8458C53.0366 34.5561 50.5632 35.5012 48 35.4999C45.436 35.5017 42.9618 34.5565 41.052 32.8458C40.1044 33.2808 39.1997 33.804 38.35 34.4083C38.8761 36.9167 38.4577 39.531 37.175 41.7499C35.8945 43.97 33.8395 45.6392 31.4041 46.4374C31.3078 47.4769 31.3078 48.523 31.4041 49.5624C33.8403 50.3602 35.8961 52.0295 37.177 54.2499H37.175ZM48 54.2499C46.3424 54.2499 44.7526 53.5915 43.5805 52.4194C42.4084 51.2473 41.75 49.6575 41.75 47.9999C41.75 46.3423 42.4084 44.7526 43.5805 43.5805C44.7526 42.4084 46.3424 41.7499 48 41.7499C49.6576 41.7499 51.2473 42.4084 52.4194 43.5805C53.5915 44.7526 54.25 46.3423 54.25 47.9999C54.25 49.6575 53.5915 51.2473 52.4194 52.4194C51.2473 53.5915 49.6576 54.2499 48 54.2499ZM48 50.0833C48.5525 50.0833 49.0824 49.8638 49.4731 49.4731C49.8638 49.0824 50.0833 48.5525 50.0833 47.9999C50.0833 47.4474 49.8638 46.9175 49.4731 46.5268C49.0824 46.1361 48.5525 45.9166 48 45.9166C47.4474 45.9166 46.9175 46.1361 46.5268 46.5268C46.1361 46.9175 45.9166 47.4474 45.9166 47.9999C45.9166 48.5525 46.1361 49.0824 46.5268 49.4731C46.9175 49.8638 47.4474 50.0833 48 50.0833Z" fill="#2A1A80"/>
</g>
<path d="M9.6 95C9.01634 95 8.4878 95 8.00358 94.9966L7.99659 95.9966C6.64156 95.9871 5.62398 95.9514 4.80088 95.8166L4.96254 94.8297C4.44649 94.7452 4.0599 94.6231 3.73005 94.455C3.49554 94.3355 3.27199 94.1983 3.06107 94.0451L2.47328 94.8541C1.96395 94.484 1.51595 94.0361 1.14589 93.5267L1.95491 92.9389C1.80166 92.728 1.66445 92.5045 1.54497 92.27C1.3769 91.9401 1.25481 91.5535 1.17028 91.0375L0.183428 91.1991C0.0485974 90.376 0.0128754 89.3584 0.00341119 88.0034L1.00339 87.9964C1 87.5122 1 86.9837 1 86.4V84H0V79.2H1V74.4H0V69.6H1V64.8H0V60H1V55.2H0V50.4H1V45.6H0V40.8H1V36H0V31.2H1V26.4H0V21.6H1V16.8H0V12H1V9.6C1 9.01634 1 8.4878 1.00339 8.00358L0.00341119 7.99659C0.0128754 6.64156 0.0485975 5.62398 0.183429 4.80088L1.17028 4.96254C1.25481 4.44649 1.3769 4.0599 1.54497 3.73005C1.66445 3.49554 1.80166 3.27199 1.95491 3.06107L1.14589 2.47328C1.51595 1.96395 1.96395 1.51595 2.47328 1.14589L3.06107 1.95491C3.27199 1.80166 3.49554 1.66445 3.73005 1.54497C4.0599 1.3769 4.44649 1.25481 4.96254 1.17028L4.80088 0.183429C5.62398 0.0485975 6.64156 0.0128754 7.99659 0.0034112L8.00358 1.00339C8.48781 1 9.01635 1 9.6 1H12V0H16.8V1H21.6V0H26.4V1H31.2V0H36V1H40.8V0H45.6V1H50.4V0H55.2V1H60V0H64.8V1H69.6V0H74.4V1H79.2V0H84V1H86.4C86.9837 1 87.5122 1 87.9964 1.00339L88.0034 0.00341119C89.3584 0.0128754 90.376 0.0485974 91.1991 0.183428L91.0375 1.17028C91.5535 1.25481 91.9401 1.3769 92.27 1.54497C92.5045 1.66445 92.728 1.80166 92.9389 1.95491L93.5267 1.14589C94.0361 1.51595 94.484 1.96395 94.8541 2.47328L94.0451 3.06107C94.1983 3.27199 94.3355 3.49554 94.455 3.73005C94.6231 4.0599 94.7452 4.44649 94.8297 4.96254L95.8166 4.80088C95.9514 5.62398 95.9871 6.64156 95.9966 7.99659L94.9966 8.00358C95 8.48781 95 9.01635 95 9.6V12H96V16.8H95V21.6H96V26.4H95V31.2H96V36H95V40.8H96V45.6H95V50.4H96V55.2H95V60H96V64.8H95V67.2C95 68.0363 95 68.8371 94.9989 69.6052L95.9989 69.6067C95.9963 71.3707 95.9878 72.9639 95.96 74.4126L94.9602 74.3934C94.9256 76.1907 94.8612 77.7491 94.7424 79.1276L95.7387 79.2134C95.581 81.0439 95.328 82.5821 94.9223 83.941L93.9641 83.6549C93.7418 84.3995 93.4727 85.0788 93.1471 85.7178C92.7409 86.5151 92.2744 87.2752 91.7533 87.9924L92.5623 88.5801C91.4521 90.1082 90.1082 91.4521 88.5801 92.5623L87.9924 91.7533C87.2752 92.2744 86.5151 92.7409 85.7178 93.1471C85.0788 93.4727 84.3995 93.7418 83.6549 93.9641L83.941 94.9223C82.5821 95.328 81.0439 95.581 79.2134 95.7387L79.1276 94.7424C77.7491 94.8612 76.1907 94.9256 74.3934 94.9602L74.4126 95.96C72.9639 95.9878 71.3707 95.9963 69.6067 95.9989L69.6052 94.9989C68.8371 95 68.0363 95 67.2 95H64.8V96H60V95H55.2V96H50.4V95H45.6V96H40.8V95H36V96H31.2V95H26.4V96H21.6V95H16.8V96H12V95H9.6Z" stroke="#99A8BF" stroke-width="2" stroke-dasharray="5 5"/>
<defs>
<clipPath id="clip0_0_138">
<rect width="50" height="50" fill="white" transform="translate(23 23)"/>
</clipPath>
</defs>
</svg>
