<svg width="96" height="96" viewBox="0 0 96 96" fill="none" xmlns="http://www.w3.org/2000/svg">
<path d="M9.6 95C9.01634 95 8.4878 95 8.00358 94.9966L7.99659 95.9966C6.64156 95.9871 5.62398 95.9514 4.80088 95.8166L4.96254 94.8297C4.44649 94.7452 4.0599 94.6231 3.73005 94.455C3.49554 94.3355 3.27199 94.1983 3.06107 94.0451L2.47328 94.8541C1.96395 94.484 1.51595 94.0361 1.14589 93.5267L1.95491 92.9389C1.80166 92.728 1.66445 92.5045 1.54497 92.27C1.3769 91.9401 1.25481 91.5535 1.17028 91.0375L0.183428 91.1991C0.0485974 90.376 0.0128754 89.3584 0.00341119 88.0034L1.00339 87.9964C1 87.5122 1 86.9837 1 86.4V84H0V79.2H1V74.4H0V69.6H1V64.8H0V60H1V55.2H0V50.4H1V45.6H0V40.8H1V36H0V31.2H1V26.4H0V21.6H1V16.8H0V12H1V9.6C1 9.01634 1 8.4878 1.00339 8.00358L0.00341119 7.99659C0.0128754 6.64156 0.0485975 5.62398 0.183429 4.80088L1.17028 4.96254C1.25481 4.44649 1.3769 4.0599 1.54497 3.73005C1.66445 3.49554 1.80166 3.27199 1.95491 3.06107L1.14589 2.47328C1.51595 1.96395 1.96395 1.51595 2.47328 1.14589L3.06107 1.95491C3.27199 1.80166 3.49554 1.66445 3.73005 1.54497C4.0599 1.3769 4.44649 1.25481 4.96254 1.17028L4.80088 0.183429C5.62398 0.0485975 6.64156 0.0128754 7.99659 0.0034112L8.00358 1.00339C8.48781 1 9.01635 1 9.6 1H12V0H16.8V1H21.6V0H26.4V1H31.2V0H36V1H40.8V0H45.6V1H50.4V0H55.2V1H60V0H64.8V1H69.6V0H74.4V1H79.2V0H84V1H86.4C86.9837 1 87.5122 1 87.9964 1.00339L88.0034 0.00341119C89.3584 0.0128754 90.376 0.0485974 91.1991 0.183428L91.0375 1.17028C91.5535 1.25481 91.9401 1.3769 92.27 1.54497C92.5045 1.66445 92.728 1.80166 92.9389 1.95491L93.5267 1.14589C94.0361 1.51595 94.484 1.96395 94.8541 2.47328L94.0451 3.06107C94.1983 3.27199 94.3355 3.49554 94.455 3.73005C94.6231 4.0599 94.7452 4.44649 94.8297 4.96254L95.8166 4.80088C95.9514 5.62398 95.9871 6.64156 95.9966 7.99659L94.9966 8.00358C95 8.48781 95 9.01635 95 9.6V12H96V16.8H95V21.6H96V26.4H95V31.2H96V36H95V40.8H96V45.6H95V50.4H96V55.2H95V60H96V64.8H95V67.2C95 68.0363 95 68.8371 94.9989 69.6052L95.9989 69.6067C95.9963 71.3707 95.9878 72.9639 95.96 74.4126L94.9602 74.3934C94.9256 76.1907 94.8612 77.7491 94.7424 79.1276L95.7387 79.2134C95.581 81.0439 95.328 82.5821 94.9223 83.941L93.9641 83.6549C93.7418 84.3995 93.4727 85.0788 93.1471 85.7178C92.7409 86.5151 92.2744 87.2752 91.7533 87.9924L92.5623 88.5801C91.4521 90.1082 90.1082 91.4521 88.5801 92.5623L87.9924 91.7533C87.2752 92.2744 86.5151 92.7409 85.7178 93.1471C85.0788 93.4727 84.3995 93.7418 83.6549 93.9641L83.941 94.9223C82.5821 95.328 81.0439 95.581 79.2134 95.7387L79.1276 94.7424C77.7491 94.8612 76.1907 94.9256 74.3934 94.9602L74.4126 95.96C72.9639 95.9878 71.3707 95.9963 69.6067 95.9989L69.6052 94.9989C68.8371 95 68.0363 95 67.2 95H64.8V96H60V95H55.2V96H50.4V95H45.6V96H40.8V95H36V96H31.2V95H26.4V96H21.6V95H16.8V96H12V95H9.6Z" fill="white"/>
<g clip-path="url(#clip0_0_143)">
<path d="M62.5833 43.8333H64.6667C65.2192 43.8333 65.7491 44.0528 66.1398 44.4435C66.5305 44.8342 66.75 45.3641 66.75 45.9166V66.75C66.75 67.3025 66.5305 67.8324 66.1398 68.2231C65.7491 68.6138 65.2192 68.8333 64.6667 68.8333H31.3333C30.7808 68.8333 30.2509 68.6138 29.8602 68.2231C29.4695 67.8324 29.25 67.3025 29.25 66.75V45.9166C29.25 45.3641 29.4695 44.8342 29.8602 44.4435C30.2509 44.0528 30.7808 43.8333 31.3333 43.8333H33.4167V41.75C33.4167 39.8348 33.7939 37.9385 34.5268 36.1692C35.2596 34.3998 36.3338 32.7922 37.688 31.438C39.0422 30.0838 40.6499 29.0096 42.4192 28.2767C44.1885 27.5438 46.0849 27.1666 48 27.1666C49.9151 27.1666 51.8115 27.5438 53.5808 28.2767C55.3501 29.0096 56.9578 30.0838 58.312 31.438C59.6662 32.7922 60.7404 34.3998 61.4732 36.1692C62.2061 37.9385 62.5833 39.8348 62.5833 41.75V43.8333ZM33.4167 48V64.6666H62.5833V48H33.4167ZM45.9167 52.1666H50.0833V60.5H45.9167V52.1666ZM58.4167 43.8333V41.75C58.4167 38.9873 57.3192 36.3378 55.3657 34.3843C53.4122 32.4308 50.7627 31.3333 48 31.3333C45.2373 31.3333 42.5878 32.4308 40.6343 34.3843C38.6808 36.3378 37.5833 38.9873 37.5833 41.75V43.8333H58.4167Z" fill="#2A1A80"/>
</g>
<path d="M9.6 95C9.01634 95 8.4878 95 8.00358 94.9966L7.99659 95.9966C6.64156 95.9871 5.62398 95.9514 4.80088 95.8166L4.96254 94.8297C4.44649 94.7452 4.0599 94.6231 3.73005 94.455C3.49554 94.3355 3.27199 94.1983 3.06107 94.0451L2.47328 94.8541C1.96395 94.484 1.51595 94.0361 1.14589 93.5267L1.95491 92.9389C1.80166 92.728 1.66445 92.5045 1.54497 92.27C1.3769 91.9401 1.25481 91.5535 1.17028 91.0375L0.183428 91.1991C0.0485974 90.376 0.0128754 89.3584 0.00341119 88.0034L1.00339 87.9964C1 87.5122 1 86.9837 1 86.4V84H0V79.2H1V74.4H0V69.6H1V64.8H0V60H1V55.2H0V50.4H1V45.6H0V40.8H1V36H0V31.2H1V26.4H0V21.6H1V16.8H0V12H1V9.6C1 9.01634 1 8.4878 1.00339 8.00358L0.00341119 7.99659C0.0128754 6.64156 0.0485975 5.62398 0.183429 4.80088L1.17028 4.96254C1.25481 4.44649 1.3769 4.0599 1.54497 3.73005C1.66445 3.49554 1.80166 3.27199 1.95491 3.06107L1.14589 2.47328C1.51595 1.96395 1.96395 1.51595 2.47328 1.14589L3.06107 1.95491C3.27199 1.80166 3.49554 1.66445 3.73005 1.54497C4.0599 1.3769 4.44649 1.25481 4.96254 1.17028L4.80088 0.183429C5.62398 0.0485975 6.64156 0.0128754 7.99659 0.0034112L8.00358 1.00339C8.48781 1 9.01635 1 9.6 1H12V0H16.8V1H21.6V0H26.4V1H31.2V0H36V1H40.8V0H45.6V1H50.4V0H55.2V1H60V0H64.8V1H69.6V0H74.4V1H79.2V0H84V1H86.4C86.9837 1 87.5122 1 87.9964 1.00339L88.0034 0.00341119C89.3584 0.0128754 90.376 0.0485974 91.1991 0.183428L91.0375 1.17028C91.5535 1.25481 91.9401 1.3769 92.27 1.54497C92.5045 1.66445 92.728 1.80166 92.9389 1.95491L93.5267 1.14589C94.0361 1.51595 94.484 1.96395 94.8541 2.47328L94.0451 3.06107C94.1983 3.27199 94.3355 3.49554 94.455 3.73005C94.6231 4.0599 94.7452 4.44649 94.8297 4.96254L95.8166 4.80088C95.9514 5.62398 95.9871 6.64156 95.9966 7.99659L94.9966 8.00358C95 8.48781 95 9.01635 95 9.6V12H96V16.8H95V21.6H96V26.4H95V31.2H96V36H95V40.8H96V45.6H95V50.4H96V55.2H95V60H96V64.8H95V67.2C95 68.0363 95 68.8371 94.9989 69.6052L95.9989 69.6067C95.9963 71.3707 95.9878 72.9639 95.96 74.4126L94.9602 74.3934C94.9256 76.1907 94.8612 77.7491 94.7424 79.1276L95.7387 79.2134C95.581 81.0439 95.328 82.5821 94.9223 83.941L93.9641 83.6549C93.7418 84.3995 93.4727 85.0788 93.1471 85.7178C92.7409 86.5151 92.2744 87.2752 91.7533 87.9924L92.5623 88.5801C91.4521 90.1082 90.1082 91.4521 88.5801 92.5623L87.9924 91.7533C87.2752 92.2744 86.5151 92.7409 85.7178 93.1471C85.0788 93.4727 84.3995 93.7418 83.6549 93.9641L83.941 94.9223C82.5821 95.328 81.0439 95.581 79.2134 95.7387L79.1276 94.7424C77.7491 94.8612 76.1907 94.9256 74.3934 94.9602L74.4126 95.96C72.9639 95.9878 71.3707 95.9963 69.6067 95.9989L69.6052 94.9989C68.8371 95 68.0363 95 67.2 95H64.8V96H60V95H55.2V96H50.4V95H45.6V96H40.8V95H36V96H31.2V95H26.4V96H21.6V95H16.8V96H12V95H9.6Z" stroke="#99A8BF" stroke-width="2" stroke-dasharray="5 5"/>
<defs>
<clipPath id="clip0_0_143">
<rect width="50" height="50" fill="white" transform="translate(23 23)"/>
</clipPath>
</defs>
</svg>
