<svg width="76" height="76" viewBox="0 0 76 76" fill="none" xmlns="http://www.w3.org/2000/svg">
<rect x="-1" y="1" width="74" height="74" rx="37" transform="matrix(-1 -8.74228e-08 -8.74228e-08 1 74 -8.74228e-08)" fill="white"/>
<g clip-path="url(#clip0_0_263)">
<path d="M31.742 36.5L39.788 28.454L37.667 26.333L26 38L37.667 49.667L39.788 47.546L31.742 39.5L50 39.5L50 36.5L31.742 36.5Z" fill="#09121F"/>
</g>
<rect x="-1" y="1" width="74" height="74" rx="37" transform="matrix(-1 -8.74228e-08 -8.74228e-08 1 74 -8.74228e-08)" stroke="#99A8BF" stroke-width="2"/>
<defs>
<clipPath id="clip0_0_263">
<rect width="36" height="36" fill="white" transform="matrix(-1 -8.74228e-08 -8.74228e-08 1 56 20)"/>
</clipPath>
</defs>
</svg>
