<svg width="32" height="32" viewBox="0 0 32 32" fill="none" xmlns="http://www.w3.org/2000/svg">
<g clip-path="url(#clip0_215_147)">
<path d="M4 4H28C28.3536 4 28.6928 4.14048 28.9428 4.39052C29.1929 4.64057 29.3333 4.97971 29.3333 5.33333V26.6667C29.3333 27.0203 29.1929 27.3594 28.9428 27.6095C28.6928 27.8595 28.3536 28 28 28H4C3.64638 28 3.30724 27.8595 3.05719 27.6095C2.80714 27.3594 2.66666 27.0203 2.66666 26.6667V5.33333C2.66666 4.97971 2.80714 4.64057 3.05719 4.39052C3.30724 4.14048 3.64638 4 4 4ZM26.6667 9.65067L16.096 19.1173L5.33333 9.62133V25.3333H26.6667V9.65067ZM6.01466 6.66667L16.0813 15.5493L26.0027 6.66667H6.01466Z" fill="white"/>
</g>
<defs>
<clipPath id="clip0_215_147">
<rect width="32" height="32" fill="white"/>
</clipPath>
</defs>
</svg>
