<svg width="104" height="104" viewBox="0 0 104 104" fill="none" xmlns="http://www.w3.org/2000/svg">
<rect width="104" height="104" rx="52" transform="matrix(-1 -8.74228e-08 -8.74228e-08 1 104 0)" fill="white" fill-opacity="0.4"/>
<path d="M71.6693 53.1089L43.4053 71.9515C43.2046 72.0851 42.9713 72.1618 42.7304 72.1733C42.4895 72.1848 42.25 72.1308 42.0373 72.017C41.8247 71.9031 41.647 71.7338 41.523 71.5269C41.399 71.32 41.3335 71.0834 41.3333 70.8422L41.3333 33.1569C41.3335 32.9157 41.399 32.6791 41.523 32.4722C41.647 32.2653 41.8247 32.0959 42.0373 31.9821C42.25 31.8683 42.4895 31.8142 42.7304 31.8257C42.9713 31.8373 43.2046 31.9139 43.4053 32.0475L71.6693 50.8902C71.852 51.012 72.0017 51.1769 72.1052 51.3704C72.2088 51.564 72.263 51.78 72.263 51.9995C72.263 52.219 72.2088 52.4351 72.1052 52.6286C72.0017 52.8221 71.852 52.9871 71.6693 53.1089Z" fill="white"/>
</svg>
