<svg width="239" height="25" viewBox="0 0 239 25" fill="none" xmlns="http://www.w3.org/2000/svg">
<mask id="path-1-inside-1_203_49" fill="white">
<path d="M58.1358 24.4944V0.505579H69.0667C70.6474 0.505579 72.0828 0.894933 73.3728 1.67364C74.6629 2.45235 75.6625 3.49837 76.3715 4.81172C77.0921 6.12506 77.4523 7.56625 77.4523 9.13529C77.4523 10.9368 76.9177 12.5814 75.8484 14.069C74.7792 15.5567 73.3961 16.5446 71.6992 17.0328L71.4551 17.1025L71.7689 17.4686L78.2369 24.4944H72.3094L67.3582 18.8808C66.9747 18.4391 66.5911 18.1137 66.2076 17.9045C65.824 17.6836 65.3591 17.5732 64.8129 17.5732C64.069 17.5732 63.5112 17.8231 63.1392 18.3229C62.7789 18.8226 62.5988 19.4619 62.5988 20.2406V24.4944H58.1358ZM62.5988 14.1388C63.2613 13.6158 64.2143 13.3543 65.4579 13.3543H69.0667C70.229 13.3543 71.1762 12.93 71.9084 12.0816C72.6523 11.2331 73.0242 10.2162 73.0242 9.03068C73.0242 7.75221 72.6581 6.71199 71.9258 5.91004C71.1936 5.10809 70.2406 4.70711 69.0667 4.70711H62.5988V14.1388Z"/>
<path d="M80.3347 24.4944V0.505579H97.1234V4.70711H84.7629V11.3842C85.4603 10.7218 86.4947 10.3905 87.8661 10.3905H97.1234V14.6095H87.8661C86.9828 14.6095 86.2448 14.9059 85.652 15.4986C85.0593 16.0797 84.7629 16.8178 84.7629 17.7127V20.2755H97.1234V24.4944H80.3347Z"/>
<path d="M100.418 24.4944V0.505579H109.17C112.808 0.505579 115.702 1.58066 117.852 3.73082C120.014 5.86936 121.095 8.75756 121.095 12.3954C121.095 14.1388 120.804 15.7601 120.223 17.2594C119.642 18.7471 118.834 20.0256 117.8 21.0948C116.777 22.1525 115.522 22.9835 114.034 23.5879C112.546 24.1922 110.925 24.4944 109.17 24.4944H100.418ZM104.847 20.2755H109.17C111.506 20.2755 113.337 19.549 114.662 18.0962C115.998 16.6434 116.667 14.7431 116.667 12.3954C116.667 9.9663 116.027 8.07764 114.749 6.72943C113.482 5.38122 111.623 4.70711 109.17 4.70711H104.847V20.2755Z"/>
<path d="M123.477 24.4944V0.505579H127.906V20.2755H140.44V24.4944H123.477Z"/>
<path d="M143.176 24.4944V0.505579H147.605V24.4944H143.176Z"/>
<path d="M151.317 17.3291C150.666 15.795 150.341 14.1853 150.341 12.5C150.341 10.8147 150.666 9.20502 151.317 7.67085C151.979 6.13668 152.863 4.81172 153.967 3.69596C155.083 2.5802 156.407 1.69107 157.942 1.02859C159.476 0.366109 161.086 0.0348675 162.771 0.0348675C165.316 0.0348675 167.641 0.755463 169.744 2.19665C171.848 3.63784 173.376 5.54974 174.329 7.93236H169.518C168.797 6.74686 167.844 5.84031 166.659 5.21269C165.473 4.57345 164.177 4.25384 162.771 4.25384C160.458 4.25384 158.546 5.04998 157.035 6.64226C155.524 8.22292 154.769 10.1755 154.769 12.5C154.769 14.8245 155.524 16.7771 157.035 18.3577C158.546 19.9268 160.458 20.7113 162.771 20.7113C164.596 20.7113 166.194 20.2057 167.565 19.1946C168.948 18.1718 169.907 16.7829 170.442 15.0279H161.655V10.8264H175.079C175.184 11.4075 175.236 11.9654 175.236 12.5C175.236 14.1853 174.905 15.8008 174.242 17.3466C173.58 18.8808 172.691 20.1999 171.575 21.304C170.459 22.4082 169.134 23.2915 167.6 23.954C166.066 24.6048 164.456 24.9303 162.771 24.9303C161.086 24.9303 159.476 24.6048 157.942 23.954C156.407 23.2915 155.083 22.4082 153.967 21.304C152.863 20.1883 151.979 18.8633 151.317 17.3291Z"/>
<path d="M177.431 24.4944V0.505579H181.86V11.2796C182.569 10.6869 183.556 10.3905 184.823 10.3905H193.505V0.505579H197.968V24.4944H193.505V14.6095H184.684C183.847 14.6095 183.167 14.8652 182.644 15.3766C182.121 15.8763 181.86 16.5446 181.86 17.3815V24.4944H177.431Z"/>
<path d="M200.164 4.70711V0.505579H219.48V4.70711H214.442C213.663 4.70711 213.047 4.957 212.594 5.45676C212.141 5.95653 211.914 6.60158 211.914 7.39191V24.4944H207.486V7.53138C207.486 6.21804 207.759 5.27662 208.305 4.70711H200.164Z"/>
<path d="M219.474 17.1722H223.902C223.902 17.9161 224.175 18.5844 224.721 19.1771C225.279 19.7583 225.93 20.1883 226.674 20.4672C227.417 20.7462 228.15 20.8856 228.87 20.8856C229.417 20.8856 229.963 20.8275 230.509 20.7113C231.067 20.5835 231.602 20.3975 232.113 20.1534C232.636 19.8977 233.06 19.5432 233.386 19.09C233.711 18.6367 233.874 18.1079 233.874 17.5035C233.874 17.0037 233.717 16.5679 233.403 16.196C233.101 15.824 232.688 15.5219 232.165 15.2894C231.642 15.057 231.038 14.8477 230.352 14.6618C229.678 14.4642 228.963 14.2724 228.208 14.0865C227.464 13.9005 226.72 13.6971 225.976 13.4763C225.232 13.2555 224.518 12.9707 223.832 12.622C223.158 12.2617 222.559 11.8433 222.036 11.3668C221.513 10.8903 221.095 10.2801 220.781 9.53626C220.479 8.79242 220.328 7.94398 220.328 6.99093C220.328 5.86355 220.572 4.84658 221.06 3.94003C221.548 3.03347 222.193 2.30126 222.995 1.74338C223.809 1.17387 224.715 0.74384 225.715 0.453278C226.714 0.151093 227.755 0 228.835 0C229.568 0 230.311 0.0871688 231.067 0.261506C231.822 0.424221 232.555 0.679916 233.264 1.02859C233.984 1.37727 234.618 1.79568 235.164 2.28382C235.722 2.77197 236.169 3.37053 236.506 4.0795C236.843 4.77685 237.012 5.5265 237.012 6.32845H232.549C232.467 5.87517 232.2 5.4742 231.747 5.12552C231.305 4.76523 230.823 4.50953 230.3 4.35844C229.788 4.19572 229.3 4.11437 228.835 4.11437C228.243 4.11437 227.65 4.20153 227.057 4.37587C226.464 4.53859 225.93 4.83496 225.453 5.26499C224.988 5.69503 224.756 6.22385 224.756 6.85146C224.756 7.32799 224.907 7.7464 225.209 8.1067C225.523 8.45537 225.941 8.74012 226.464 8.96095C226.987 9.18178 227.586 9.38517 228.26 9.57113C228.934 9.74547 229.643 9.92562 230.387 10.1116C231.143 10.2975 231.892 10.5009 232.636 10.7218C233.391 10.9426 234.106 11.2331 234.78 11.5934C235.454 11.9421 236.053 12.3547 236.576 12.8312C237.099 13.2961 237.512 13.9005 237.814 14.6444C238.128 15.3882 238.285 16.2308 238.285 17.1722C238.285 18.1369 238.099 19.0435 237.727 19.8919C237.366 20.7404 236.878 21.4726 236.262 22.0886C235.646 22.6929 234.931 23.2218 234.118 23.675C233.316 24.1167 232.467 24.4479 231.573 24.6688C230.678 24.8896 229.777 25 228.87 25C227.975 25 227.08 24.8896 226.186 24.6688C225.291 24.4479 224.436 24.1167 223.623 23.675C222.821 23.2218 222.112 22.6871 221.496 22.0711C220.88 21.4551 220.386 20.7229 220.014 19.8745C219.654 19.026 219.474 18.1253 219.474 17.1722Z"/>
<path d="M1.74292 16.8008C-0.580976 14.4769 -0.580974 10.7091 1.74293 8.38519L9.43657 0.691539C9.43657 0.691539 0 12.593 21.338 12.593C16.6902 17.2408 9.43657 24.4944 9.43657 24.4944L1.74292 16.8008Z"/>
<path d="M21.338 12.593C25.9858 7.94518 33.2395 0.691539 33.2395 0.691539L40.9331 8.38519C43.257 10.7091 43.257 14.4769 40.9331 16.8008L33.2395 24.4944C33.2395 24.4944 42.676 12.593 21.338 12.593Z"/>
</mask>
<path d="M58.1358 24.4944V0.505579H69.0667C70.6474 0.505579 72.0828 0.894933 73.3728 1.67364C74.6629 2.45235 75.6625 3.49837 76.3715 4.81172C77.0921 6.12506 77.4523 7.56625 77.4523 9.13529C77.4523 10.9368 76.9177 12.5814 75.8484 14.069C74.7792 15.5567 73.3961 16.5446 71.6992 17.0328L71.4551 17.1025L71.7689 17.4686L78.2369 24.4944H72.3094L67.3582 18.8808C66.9747 18.4391 66.5911 18.1137 66.2076 17.9045C65.824 17.6836 65.3591 17.5732 64.8129 17.5732C64.069 17.5732 63.5112 17.8231 63.1392 18.3229C62.7789 18.8226 62.5988 19.4619 62.5988 20.2406V24.4944H58.1358ZM62.5988 14.1388C63.2613 13.6158 64.2143 13.3543 65.4579 13.3543H69.0667C70.229 13.3543 71.1762 12.93 71.9084 12.0816C72.6523 11.2331 73.0242 10.2162 73.0242 9.03068C73.0242 7.75221 72.6581 6.71199 71.9258 5.91004C71.1936 5.10809 70.2406 4.70711 69.0667 4.70711H62.5988V14.1388Z" fill="black"/>
<path d="M80.3347 24.4944V0.505579H97.1234V4.70711H84.7629V11.3842C85.4603 10.7218 86.4947 10.3905 87.8661 10.3905H97.1234V14.6095H87.8661C86.9828 14.6095 86.2448 14.9059 85.652 15.4986C85.0593 16.0797 84.7629 16.8178 84.7629 17.7127V20.2755H97.1234V24.4944H80.3347Z" fill="black"/>
<path d="M100.418 24.4944V0.505579H109.17C112.808 0.505579 115.702 1.58066 117.852 3.73082C120.014 5.86936 121.095 8.75756 121.095 12.3954C121.095 14.1388 120.804 15.7601 120.223 17.2594C119.642 18.7471 118.834 20.0256 117.8 21.0948C116.777 22.1525 115.522 22.9835 114.034 23.5879C112.546 24.1922 110.925 24.4944 109.17 24.4944H100.418ZM104.847 20.2755H109.17C111.506 20.2755 113.337 19.549 114.662 18.0962C115.998 16.6434 116.667 14.7431 116.667 12.3954C116.667 9.9663 116.027 8.07764 114.749 6.72943C113.482 5.38122 111.623 4.70711 109.17 4.70711H104.847V20.2755Z" fill="black"/>
<path d="M123.477 24.4944V0.505579H127.906V20.2755H140.44V24.4944H123.477Z" fill="black"/>
<path d="M143.176 24.4944V0.505579H147.605V24.4944H143.176Z" fill="black"/>
<path d="M151.317 17.3291C150.666 15.795 150.341 14.1853 150.341 12.5C150.341 10.8147 150.666 9.20502 151.317 7.67085C151.979 6.13668 152.863 4.81172 153.967 3.69596C155.083 2.5802 156.407 1.69107 157.942 1.02859C159.476 0.366109 161.086 0.0348675 162.771 0.0348675C165.316 0.0348675 167.641 0.755463 169.744 2.19665C171.848 3.63784 173.376 5.54974 174.329 7.93236H169.518C168.797 6.74686 167.844 5.84031 166.659 5.21269C165.473 4.57345 164.177 4.25384 162.771 4.25384C160.458 4.25384 158.546 5.04998 157.035 6.64226C155.524 8.22292 154.769 10.1755 154.769 12.5C154.769 14.8245 155.524 16.7771 157.035 18.3577C158.546 19.9268 160.458 20.7113 162.771 20.7113C164.596 20.7113 166.194 20.2057 167.565 19.1946C168.948 18.1718 169.907 16.7829 170.442 15.0279H161.655V10.8264H175.079C175.184 11.4075 175.236 11.9654 175.236 12.5C175.236 14.1853 174.905 15.8008 174.242 17.3466C173.58 18.8808 172.691 20.1999 171.575 21.304C170.459 22.4082 169.134 23.2915 167.6 23.954C166.066 24.6048 164.456 24.9303 162.771 24.9303C161.086 24.9303 159.476 24.6048 157.942 23.954C156.407 23.2915 155.083 22.4082 153.967 21.304C152.863 20.1883 151.979 18.8633 151.317 17.3291Z" fill="black"/>
<path d="M177.431 24.4944V0.505579H181.86V11.2796C182.569 10.6869 183.556 10.3905 184.823 10.3905H193.505V0.505579H197.968V24.4944H193.505V14.6095H184.684C183.847 14.6095 183.167 14.8652 182.644 15.3766C182.121 15.8763 181.86 16.5446 181.86 17.3815V24.4944H177.431Z" fill="black"/>
<path d="M200.164 4.70711V0.505579H219.48V4.70711H214.442C213.663 4.70711 213.047 4.957 212.594 5.45676C212.141 5.95653 211.914 6.60158 211.914 7.39191V24.4944H207.486V7.53138C207.486 6.21804 207.759 5.27662 208.305 4.70711H200.164Z" fill="black"/>
<path d="M219.474 17.1722H223.902C223.902 17.9161 224.175 18.5844 224.721 19.1771C225.279 19.7583 225.93 20.1883 226.674 20.4672C227.417 20.7462 228.15 20.8856 228.87 20.8856C229.417 20.8856 229.963 20.8275 230.509 20.7113C231.067 20.5835 231.602 20.3975 232.113 20.1534C232.636 19.8977 233.06 19.5432 233.386 19.09C233.711 18.6367 233.874 18.1079 233.874 17.5035C233.874 17.0037 233.717 16.5679 233.403 16.196C233.101 15.824 232.688 15.5219 232.165 15.2894C231.642 15.057 231.038 14.8477 230.352 14.6618C229.678 14.4642 228.963 14.2724 228.208 14.0865C227.464 13.9005 226.72 13.6971 225.976 13.4763C225.232 13.2555 224.518 12.9707 223.832 12.622C223.158 12.2617 222.559 11.8433 222.036 11.3668C221.513 10.8903 221.095 10.2801 220.781 9.53626C220.479 8.79242 220.328 7.94398 220.328 6.99093C220.328 5.86355 220.572 4.84658 221.06 3.94003C221.548 3.03347 222.193 2.30126 222.995 1.74338C223.809 1.17387 224.715 0.74384 225.715 0.453278C226.714 0.151093 227.755 0 228.835 0C229.568 0 230.311 0.0871688 231.067 0.261506C231.822 0.424221 232.555 0.679916 233.264 1.02859C233.984 1.37727 234.618 1.79568 235.164 2.28382C235.722 2.77197 236.169 3.37053 236.506 4.0795C236.843 4.77685 237.012 5.5265 237.012 6.32845H232.549C232.467 5.87517 232.2 5.4742 231.747 5.12552C231.305 4.76523 230.823 4.50953 230.3 4.35844C229.788 4.19572 229.3 4.11437 228.835 4.11437C228.243 4.11437 227.65 4.20153 227.057 4.37587C226.464 4.53859 225.93 4.83496 225.453 5.26499C224.988 5.69503 224.756 6.22385 224.756 6.85146C224.756 7.32799 224.907 7.7464 225.209 8.1067C225.523 8.45537 225.941 8.74012 226.464 8.96095C226.987 9.18178 227.586 9.38517 228.26 9.57113C228.934 9.74547 229.643 9.92562 230.387 10.1116C231.143 10.2975 231.892 10.5009 232.636 10.7218C233.391 10.9426 234.106 11.2331 234.78 11.5934C235.454 11.9421 236.053 12.3547 236.576 12.8312C237.099 13.2961 237.512 13.9005 237.814 14.6444C238.128 15.3882 238.285 16.2308 238.285 17.1722C238.285 18.1369 238.099 19.0435 237.727 19.8919C237.366 20.7404 236.878 21.4726 236.262 22.0886C235.646 22.6929 234.931 23.2218 234.118 23.675C233.316 24.1167 232.467 24.4479 231.573 24.6688C230.678 24.8896 229.777 25 228.87 25C227.975 25 227.08 24.8896 226.186 24.6688C225.291 24.4479 224.436 24.1167 223.623 23.675C222.821 23.2218 222.112 22.6871 221.496 22.0711C220.88 21.4551 220.386 20.7229 220.014 19.8745C219.654 19.026 219.474 18.1253 219.474 17.1722Z" fill="black"/>
<path d="M1.74292 16.8008C-0.580976 14.4769 -0.580974 10.7091 1.74293 8.38519L9.43657 0.691539C9.43657 0.691539 0 12.593 21.338 12.593C16.6902 17.2408 9.43657 24.4944 9.43657 24.4944L1.74292 16.8008Z" fill="black"/>
<path d="M21.338 12.593C25.9858 7.94518 33.2395 0.691539 33.2395 0.691539L40.9331 8.38519C43.257 10.7091 43.257 14.4769 40.9331 16.8008L33.2395 24.4944C33.2395 24.4944 42.676 12.593 21.338 12.593Z" fill="black"/>
<path d="M58.1358 24.4944H57.1358V25.4944H58.1358V24.4944ZM58.1358 0.505579V-0.494421H57.1358V0.505579H58.1358ZM76.3715 4.81172L75.4915 5.28676L75.4948 5.29274L76.3715 4.81172ZM71.6992 17.0328L71.9739 17.9943L71.9757 17.9938L71.6992 17.0328ZM71.4551 17.1025L71.1804 16.141L69.6811 16.5694L70.6959 17.7533L71.4551 17.1025ZM71.7689 17.4686L71.0097 18.1194L71.0212 18.1329L71.0332 18.1459L71.7689 17.4686ZM78.2369 24.4944V25.4944H80.5167L78.9726 23.8171L78.2369 24.4944ZM72.3094 24.4944L71.5594 25.1559L71.858 25.4944H72.3094V24.4944ZM67.3582 18.8808L66.6031 19.5365L66.6082 19.5422L67.3582 18.8808ZM66.2076 17.9045L65.7086 18.7711L65.7186 18.7768L65.7287 18.7824L66.2076 17.9045ZM63.1392 18.3229L62.337 17.7259L62.3325 17.7319L62.3281 17.7381L63.1392 18.3229ZM62.5988 24.4944V25.4944H63.5988V24.4944H62.5988ZM62.5988 14.1388H61.5988V16.2023L63.2184 14.9237L62.5988 14.1388ZM71.9084 12.0816L71.1565 11.4223L71.1514 11.4282L71.9084 12.0816ZM62.5988 4.70711V3.70711H61.5988V4.70711H62.5988ZM80.3347 24.4944H79.3347V25.4944H80.3347V24.4944ZM80.3347 0.505579V-0.494421H79.3347V0.505579H80.3347ZM97.1234 0.505579H98.1234V-0.494421H97.1234V0.505579ZM97.1234 4.70711V5.70711H98.1234V4.70711H97.1234ZM84.7629 4.70711V3.70711H83.7629V4.70711H84.7629ZM84.7629 11.3842H83.7629V13.7136L85.4517 12.1092L84.7629 11.3842ZM97.1234 10.3905H98.1234V9.39052H97.1234V10.3905ZM97.1234 14.6095V15.6095H98.1234V14.6095H97.1234ZM85.652 15.4986L86.3521 16.2127L86.3591 16.2057L85.652 15.4986ZM84.7629 20.2755H83.7629V21.2755H84.7629V20.2755ZM97.1234 20.2755H98.1234V19.2755H97.1234V20.2755ZM97.1234 24.4944V25.4944H98.1234V24.4944H97.1234ZM100.418 24.4944H99.4184V25.4944H100.418V24.4944ZM100.418 0.505579V-0.494421H99.4184V0.505579H100.418ZM117.852 3.73082L117.145 4.43794L117.149 4.44174L117.852 3.73082ZM120.223 17.2594L121.155 17.6233L121.156 17.6208L120.223 17.2594ZM117.8 21.0948L117.081 20.3995L117.081 20.3997L117.8 21.0948ZM104.847 20.2755H103.847V21.2755H104.847V20.2755ZM114.662 18.0962L113.926 17.4192L113.923 17.4224L114.662 18.0962ZM114.749 6.72943L114.02 7.41421L114.023 7.41752L114.749 6.72943ZM104.847 4.70711V3.70711H103.847V4.70711H104.847ZM123.477 24.4944H122.477V25.4944H123.477V24.4944ZM123.477 0.505579V-0.494421H122.477V0.505579H123.477ZM127.906 0.505579H128.906V-0.494421H127.906V0.505579ZM127.906 20.2755H126.906V21.2755H127.906V20.2755ZM140.44 20.2755H141.44V19.2755H140.44V20.2755ZM140.44 24.4944V25.4944H141.44V24.4944H140.44ZM143.176 24.4944H142.176V25.4944H143.176V24.4944ZM143.176 0.505579V-0.494421H142.176V0.505579H143.176ZM147.605 0.505579H148.605V-0.494421H147.605V0.505579ZM147.605 24.4944V25.4944H148.605V24.4944H147.605ZM151.317 17.3291L150.396 17.7197L150.399 17.7256L151.317 17.3291ZM151.317 7.67085L150.399 7.27441L150.396 7.2803L151.317 7.67085ZM153.967 3.69596L153.26 2.98884L153.256 2.99256L153.967 3.69596ZM174.329 7.93236V8.93236H175.806L175.258 7.56097L174.329 7.93236ZM169.518 7.93236L168.663 8.45177L168.955 8.93236H169.518V7.93236ZM166.659 5.21269L166.184 6.09291L166.191 6.09648L166.659 5.21269ZM157.035 6.64226L157.758 7.33325L157.76 7.33059L157.035 6.64226ZM157.035 18.3577L156.312 19.0487L156.315 19.0514L157.035 18.3577ZM167.565 19.1946L168.159 19.9994L168.16 19.9986L167.565 19.1946ZM170.442 15.0279L171.398 15.3193L171.792 14.0279H170.442V15.0279ZM161.655 15.0279H160.655V16.0279H161.655V15.0279ZM161.655 10.8264V9.82636H160.655V10.8264H161.655ZM175.079 10.8264L176.063 10.6492L175.915 9.82636H175.079V10.8264ZM174.242 17.3466L175.16 17.743L175.161 17.7405L174.242 17.3466ZM167.6 23.954L167.991 24.8746L167.996 24.872L167.6 23.954ZM157.942 23.954L157.545 24.8721L157.551 24.8746L157.942 23.954ZM153.967 21.304L153.256 22.0075L153.263 22.0148L153.967 21.304ZM177.431 24.4944H176.431V25.4944H177.431V24.4944ZM177.431 0.505579V-0.494421H176.431V0.505579H177.431ZM181.86 0.505579H182.86V-0.494421H181.86V0.505579ZM181.86 11.2796H180.86V13.4192L182.501 12.0468L181.86 11.2796ZM193.505 10.3905V11.3905H194.505V10.3905H193.505ZM193.505 0.505579V-0.494421H192.505V0.505579H193.505ZM197.968 0.505579H198.968V-0.494421H197.968V0.505579ZM197.968 24.4944V25.4944H198.968V24.4944H197.968ZM193.505 24.4944H192.505V25.4944H193.505V24.4944ZM193.505 14.6095H194.505V13.6095H193.505V14.6095ZM182.644 15.3766L183.335 16.0996L183.343 16.0916L182.644 15.3766ZM181.86 24.4944V25.4944H182.86V24.4944H181.86ZM200.164 4.70711H199.164V5.70711H200.164V4.70711ZM200.164 0.505579V-0.494421H199.164V0.505579H200.164ZM219.48 0.505579H220.48V-0.494421H219.48V0.505579ZM219.48 4.70711V5.70711H220.48V4.70711H219.48ZM211.914 24.4944V25.4944H212.914V24.4944H211.914ZM207.486 24.4944H206.486V25.4944H207.486V24.4944ZM208.305 4.70711L209.027 5.39934L210.65 3.70711H208.305V4.70711ZM219.474 17.1722V16.1722H218.474V17.1722H219.474ZM223.902 17.1722H224.902V16.1722H223.902V17.1722ZM224.721 19.1771L223.986 19.8548L223.993 19.8623L224 19.8697L224.721 19.1771ZM230.509 20.7113L230.717 21.6894L230.725 21.6878L230.732 21.686L230.509 20.7113ZM232.113 20.1534L232.544 21.0559L232.552 21.0518L232.113 20.1534ZM233.403 16.196L232.627 16.8265L232.633 16.8337L232.639 16.8408L233.403 16.196ZM230.352 14.6618L230.071 15.6214L230.081 15.6243L230.09 15.6269L230.352 14.6618ZM228.208 14.0865L227.965 15.0566L227.969 15.0575L228.208 14.0865ZM223.832 12.622L223.361 13.504L223.37 13.5088L223.379 13.5134L223.832 12.622ZM220.781 9.53626L219.854 9.91267L219.86 9.92496L220.781 9.53626ZM222.995 1.74338L223.566 2.56428L223.569 2.56261L222.995 1.74338ZM225.715 0.453278L225.994 1.41358L226.004 1.41049L225.715 0.453278ZM231.067 0.261506L230.842 1.2359L230.849 1.23755L230.856 1.23909L231.067 0.261506ZM233.264 1.02859L232.822 1.92596L232.828 1.92875L233.264 1.02859ZM235.164 2.28382L234.498 3.02952L234.505 3.0364L235.164 2.28382ZM236.506 4.0795L235.603 4.50887L235.606 4.51467L236.506 4.0795ZM237.012 6.32845V7.32845H238.012V6.32845H237.012ZM232.549 6.32845L231.565 6.50512L231.712 7.32845H232.549V6.32845ZM231.747 5.12552L231.115 5.90039L231.126 5.90943L231.137 5.91815L231.747 5.12552ZM230.3 4.35844L229.997 5.31136L230.009 5.31543L230.022 5.31915L230.3 4.35844ZM227.057 4.37587L227.322 5.3402L227.331 5.3378L227.339 5.33524L227.057 4.37587ZM225.453 5.26499L224.783 4.52254L224.774 4.53089L225.453 5.26499ZM225.209 8.1067L224.443 8.74931L224.454 8.76268L224.466 8.77566L225.209 8.1067ZM228.26 9.57113L227.994 10.5351L228.002 10.5373L228.01 10.5393L228.26 9.57113ZM230.387 10.1116L230.145 11.0817L230.148 11.0826L230.387 10.1116ZM232.636 10.7218L232.351 11.6804L232.355 11.6816L232.636 10.7218ZM234.78 11.5934L234.309 12.4755L234.321 12.4817L234.78 11.5934ZM236.576 12.8312L235.902 13.5705L235.912 13.5787L236.576 12.8312ZM237.814 14.6444L236.887 15.0208L236.892 15.0331L237.814 14.6444ZM237.727 19.8919L236.811 19.4904L236.806 19.501L237.727 19.8919ZM236.262 22.0886L236.963 22.8024L236.969 22.7957L236.262 22.0886ZM234.118 23.675L234.6 24.551L234.605 24.5486L234.118 23.675ZM223.623 23.675L223.131 24.5456L223.138 24.5498L223.146 24.5539L223.623 23.675ZM220.014 19.8745L219.093 20.2654L219.098 20.276L220.014 19.8745ZM9.43657 0.691539L10.2202 1.31283L8.72947 -0.0155679L9.43657 0.691539ZM9.43657 24.4944L8.72947 25.2015L9.43657 25.9086L10.1437 25.2015L9.43657 24.4944ZM1.74293 8.38519L1.03582 7.67808L1.74293 8.38519ZM1.74292 16.8008L1.03582 17.5079L1.74292 16.8008ZM33.2395 0.691539L33.9466 -0.0155679L33.2395 -0.722675L32.5324 -0.0155678L33.2395 0.691539ZM33.2395 24.4944L32.4559 23.8731L33.9466 25.2015L33.2395 24.4944ZM40.9331 16.8008L41.6402 17.5079L41.6402 17.5079L40.9331 16.8008ZM59.1358 24.4944V0.505579H57.1358V24.4944H59.1358ZM58.1358 1.50558H69.0667V-0.494421H58.1358V1.50558ZM69.0667 1.50558C70.4745 1.50558 71.7297 1.84989 72.8561 2.52977L73.8896 0.817511C72.4358 -0.0600207 70.8202 -0.494421 69.0667 -0.494421V1.50558ZM72.8561 2.52977C73.9948 3.2171 74.8682 4.13219 75.4915 5.28674L77.2514 4.33669C76.4567 2.86456 75.3311 1.68759 73.8896 0.817511L72.8561 2.52977ZM75.4948 5.29274C76.1306 6.45158 76.4523 7.72615 76.4523 9.13529H78.4523C78.4523 7.40635 78.0535 5.79853 77.2482 4.33069L75.4948 5.29274ZM76.4523 9.13529C76.4523 10.7236 75.9857 12.1647 75.0364 13.4854L76.6605 14.6527C77.8497 12.998 78.4523 11.15 78.4523 9.13529H76.4523ZM75.0364 13.4854C74.0929 14.7981 72.8952 15.6482 71.4228 16.0718L71.9757 17.9938C73.897 17.4411 75.4654 16.3153 76.6605 14.6527L75.0364 13.4854ZM71.4245 16.0713L71.1804 16.141L71.7299 18.064L71.9739 17.9943L71.4245 16.0713ZM70.6959 17.7533L71.0097 18.1194L72.5282 16.8178L72.2144 16.4517L70.6959 17.7533ZM71.0332 18.1459L77.5012 25.1717L78.9726 23.8171L72.5047 16.7913L71.0332 18.1459ZM78.2369 23.4944H72.3094V25.4944H78.2369V23.4944ZM73.0594 23.833L68.1082 18.2193L66.6082 19.5422L71.5594 25.1559L73.0594 23.833ZM68.1132 18.2251C67.6765 17.7221 67.2033 17.3085 66.6864 17.0266L65.7287 18.7824C65.9789 18.9188 66.2729 19.1561 66.6032 19.5364L68.1132 18.2251ZM66.7065 17.0378C66.1395 16.7113 65.4936 16.5732 64.8129 16.5732V18.5732C65.2247 18.5732 65.5086 18.6559 65.7086 18.7711L66.7065 17.0378ZM64.8129 16.5732C63.8221 16.5732 62.9354 16.9218 62.337 17.7259L63.9415 18.9199C64.0869 18.7245 64.316 18.5732 64.8129 18.5732V16.5732ZM62.3281 17.7381C61.816 18.4484 61.5988 19.3077 61.5988 20.2406H63.5988C63.5988 19.616 63.7419 19.1969 63.9504 18.9077L62.3281 17.7381ZM61.5988 20.2406V24.4944H63.5988V20.2406H61.5988ZM62.5988 23.4944H58.1358V25.4944H62.5988V23.4944ZM63.2184 14.9237C63.638 14.5924 64.3367 14.3543 65.4579 14.3543V12.3543C64.092 12.3543 62.8845 12.6391 61.9791 13.3539L63.2184 14.9237ZM65.4579 14.3543H69.0667V12.3543H65.4579V14.3543ZM69.0667 14.3543C70.5074 14.3543 71.7354 13.8127 72.6655 12.7349L71.1514 11.4282C70.617 12.0474 69.9505 12.3543 69.0667 12.3543V14.3543ZM72.6604 12.7408C73.5727 11.7002 74.0242 10.4453 74.0242 9.03068H72.0242C72.0242 9.98703 71.7318 10.7661 71.1565 11.4224L72.6604 12.7408ZM74.0242 9.03068C74.0242 7.54968 73.594 6.25397 72.6643 5.23577L71.1874 6.58431C71.7221 7.17002 72.0242 7.95474 72.0242 9.03068H74.0242ZM72.6643 5.23577C71.7261 4.2082 70.4961 3.70711 69.0667 3.70711V5.70711C69.9851 5.70711 70.6611 6.00798 71.1874 6.58431L72.6643 5.23577ZM69.0667 3.70711H62.5988V5.70711H69.0667V3.70711ZM61.5988 4.70711V14.1388H63.5988V4.70711H61.5988ZM81.3347 24.4944V0.505579H79.3347V24.4944H81.3347ZM80.3347 1.50558H97.1234V-0.494421H80.3347V1.50558ZM96.1234 0.505579V4.70711H98.1234V0.505579H96.1234ZM97.1234 3.70711H84.7629V5.70711H97.1234V3.70711ZM83.7629 4.70711V11.3842H85.7629V4.70711H83.7629ZM85.4517 12.1092C85.8968 11.6864 86.6418 11.3905 87.8661 11.3905V9.39052C86.3475 9.39052 85.0238 9.75713 84.0742 10.6592L85.4517 12.1092ZM87.8661 11.3905H97.1234V9.39052H87.8661V11.3905ZM96.1234 10.3905V14.6095H98.1234V10.3905H96.1234ZM97.1234 13.6095H87.8661V15.6095H97.1234V13.6095ZM87.8661 13.6095C86.7334 13.6095 85.7361 14.0003 84.9449 14.7915L86.3591 16.2057C86.7534 15.8114 87.2322 15.6095 87.8661 15.6095V13.6095ZM84.952 14.7845C84.1514 15.5694 83.7629 16.5724 83.7629 17.7127H85.7629C85.7629 17.0632 85.9672 16.59 86.3521 16.2127L84.952 14.7845ZM83.7629 17.7127V20.2755H85.7629V17.7127H83.7629ZM84.7629 21.2755H97.1234V19.2755H84.7629V21.2755ZM96.1234 20.2755V24.4944H98.1234V20.2755H96.1234ZM97.1234 23.4944H80.3347V25.4944H97.1234V23.4944ZM101.418 24.4944V0.505579H99.4184V24.4944H101.418ZM100.418 1.50558H109.17V-0.494421H100.418V1.50558ZM109.17 1.50558C112.599 1.50558 115.219 2.51138 117.145 4.43793L118.559 3.02372C116.186 0.649942 113.017 -0.494421 109.17 -0.494421V1.50558ZM117.149 4.44174C119.084 6.35625 120.095 8.96837 120.095 12.3954H122.095C122.095 8.54674 120.944 5.38247 118.555 3.0199L117.149 4.44174ZM120.095 12.3954C120.095 14.0256 119.824 15.5233 119.291 16.898L121.156 17.6208C121.785 15.9969 122.095 14.2519 122.095 12.3954H120.095ZM119.292 16.8956C118.755 18.2689 118.017 19.4324 117.081 20.3995L118.519 21.7901C119.652 20.6187 120.529 19.2253 121.155 17.6233L119.292 16.8956ZM117.081 20.3997C116.164 21.3484 115.028 22.1046 113.658 22.6614L114.411 24.5143C116.015 23.8624 117.391 22.9566 118.519 21.79L117.081 20.3997ZM113.658 22.6614C112.3 23.2129 110.808 23.4944 109.17 23.4944V25.4944C111.042 25.4944 112.793 25.1716 114.411 24.5143L113.658 22.6614ZM109.17 23.4944H100.418V25.4944H109.17V23.4944ZM104.847 21.2755H109.17V19.2755H104.847V21.2755ZM109.17 21.2755C111.73 21.2755 113.851 20.4697 115.401 18.7701L113.923 17.4224C112.823 18.6284 111.283 19.2755 109.17 19.2755V21.2755ZM115.398 18.7733C116.935 17.1019 117.667 14.9436 117.667 12.3954H115.667C115.667 14.5426 115.061 16.1849 113.926 17.4192L115.398 18.7733ZM117.667 12.3954C117.667 9.79147 116.978 7.6269 115.475 6.04134L114.023 7.41752C115.077 8.52838 115.667 10.1411 115.667 12.3954H117.667ZM115.478 6.04465C113.966 4.43578 111.805 3.70711 109.17 3.70711V5.70711C111.44 5.70711 112.998 6.32666 114.02 7.41421L115.478 6.04465ZM109.17 3.70711H104.847V5.70711H109.17V3.70711ZM103.847 4.70711V20.2755H105.847V4.70711H103.847ZM123.477 1.50558H127.906V-0.494421H123.477V1.50558ZM126.906 0.505579V20.2755H128.906V0.505579H126.906ZM127.906 21.2755H140.44V19.2755H127.906V21.2755ZM139.44 20.2755V24.4944H141.44V20.2755H139.44ZM140.44 23.4944H123.477V25.4944H140.44V23.4944ZM144.176 24.4944V0.505579H142.176V24.4944H144.176ZM143.176 1.50558H147.605V-0.494421H143.176V1.50558ZM146.605 0.505579V24.4944H148.605V0.505579H146.605ZM147.605 23.4944H143.176V25.4944H147.605V23.4944ZM152.237 16.9386C151.64 15.5294 151.341 14.0526 151.341 12.5H149.341C149.341 14.3179 149.692 16.0606 150.396 17.7197L152.237 16.9386ZM151.341 12.5C151.341 10.9474 151.64 9.47062 152.237 8.0614L150.396 7.2803C149.692 8.93943 149.341 10.6821 149.341 12.5H151.341ZM152.235 8.06729C152.851 6.63999 153.667 5.42099 154.678 4.39935L153.256 2.99256C152.059 4.20244 151.107 5.63337 150.399 7.27442L152.235 8.06729ZM154.674 4.40306C155.695 3.38179 156.913 2.56206 158.338 1.94665L157.545 0.110529C155.902 0.820088 154.47 1.7786 153.26 2.98885L154.674 4.40306ZM158.338 1.94665C159.746 1.33869 161.221 1.03487 162.771 1.03487V-0.965132C160.95 -0.965132 159.206 -0.606477 157.545 0.110529L158.338 1.94665ZM162.771 1.03487C165.114 1.03487 167.242 1.69422 169.179 3.02162L170.309 1.37168C168.04 -0.1833 165.518 -0.965132 162.771 -0.965132V1.03487ZM169.179 3.02162C171.118 4.35016 172.521 6.10372 173.401 8.30375L175.258 7.56097C174.232 4.99577 172.578 2.92552 170.309 1.37168L169.179 3.02162ZM174.329 6.93236H169.518V8.93236H174.329V6.93236ZM170.372 7.41294C169.561 6.07888 168.477 5.04387 167.126 4.3289L166.191 6.09648C167.211 6.63674 168.033 7.41485 168.663 8.45177L170.372 7.41294ZM167.133 4.3325C165.795 3.6111 164.335 3.25384 162.771 3.25384V5.25384C164.019 5.25384 165.151 5.53581 166.184 6.09289L167.133 4.3325ZM162.771 3.25384C160.2 3.25384 158.021 4.151 156.31 5.95393L157.76 7.33059C159.072 5.94896 160.716 5.25384 162.771 5.25384V3.25384ZM156.312 5.95128C154.611 7.73055 153.769 9.93597 153.769 12.5H155.769C155.769 10.415 156.437 8.71529 157.758 7.33324L156.312 5.95128ZM153.769 12.5C153.769 15.064 154.611 17.2695 156.312 19.0487L157.758 17.6668C156.437 16.2847 155.769 14.585 155.769 12.5H153.769ZM156.315 19.0514C158.027 20.8293 160.205 21.7113 162.771 21.7113V19.7113C160.711 19.7113 159.065 19.0243 157.755 17.6641L156.315 19.0514ZM162.771 21.7113C164.793 21.7113 166.603 21.1466 168.159 19.9994L166.972 18.3897C165.785 19.2649 164.398 19.7113 162.771 19.7113V21.7113ZM168.16 19.9986C169.727 18.8395 170.805 17.2651 171.398 15.3193L169.485 14.7365C169.009 16.3007 168.169 17.5041 166.97 18.3905L168.16 19.9986ZM170.442 14.0279H161.655V16.0279H170.442V14.0279ZM162.655 15.0279V10.8264H160.655V15.0279H162.655ZM161.655 11.8264H175.079V9.82636H161.655V11.8264ZM174.095 11.0035C174.19 11.5322 174.236 12.0306 174.236 12.5H176.236C176.236 11.9002 176.177 11.2828 176.063 10.6492L174.095 11.0035ZM174.236 12.5C174.236 14.0501 173.932 15.5316 173.323 16.9527L175.161 17.7405C175.877 16.07 176.236 14.3204 176.236 12.5H174.236ZM173.324 16.9501C172.709 18.3744 171.89 19.5849 170.871 20.5932L172.278 22.0148C173.491 20.8149 174.45 19.3871 175.16 17.743L173.324 16.9501ZM170.871 20.5932C169.85 21.6042 168.631 22.4196 167.204 23.0359L167.996 24.872C169.637 24.1634 171.068 23.2121 172.278 22.0148L170.871 20.5932ZM167.209 23.0334C165.8 23.6312 164.323 23.9303 162.771 23.9303V25.9303C164.589 25.9303 166.331 25.5784 167.99 24.8746L167.209 23.0334ZM162.771 23.9303C161.218 23.9303 159.741 23.6312 158.332 23.0334L157.551 24.8746C159.21 25.5784 160.953 25.9303 162.771 25.9303V23.9303ZM158.338 23.0359C156.911 22.4196 155.692 21.6042 154.67 20.5932L153.263 22.0148C154.473 23.2121 155.904 24.1634 157.545 24.872L158.338 23.0359ZM154.678 20.6007C153.667 19.579 152.851 18.36 152.235 16.9327L150.399 17.7256C151.107 19.3666 152.059 20.7976 153.256 22.0074L154.678 20.6007ZM178.431 24.4944V0.505579H176.431V24.4944H178.431ZM177.431 1.50558H181.86V-0.494421H177.431V1.50558ZM180.86 0.505579V11.2796H182.86V0.505579H180.86ZM182.501 12.0468C182.973 11.652 183.704 11.3905 184.823 11.3905V9.39052C183.409 9.39052 182.164 9.72175 181.218 10.5124L182.501 12.0468ZM184.823 11.3905H193.505V9.39052H184.823V11.3905ZM194.505 10.3905V0.505579H192.505V10.3905H194.505ZM193.505 1.50558H197.968V-0.494421H193.505V1.50558ZM196.968 0.505579V24.4944H198.968V0.505579H196.968ZM197.968 23.4944H193.505V25.4944H197.968V23.4944ZM194.505 24.4944V14.6095H192.505V24.4944H194.505ZM193.505 13.6095H184.684V15.6095H193.505V13.6095ZM184.684 13.6095C183.626 13.6095 182.682 13.9408 181.945 14.6616L183.343 16.0916C183.652 15.7895 184.068 15.6095 184.684 15.6095V13.6095ZM181.953 14.6536C181.201 15.372 180.86 16.3182 180.86 17.3815H182.86C182.86 16.771 183.041 16.3807 183.335 16.0996L181.953 14.6536ZM180.86 17.3815V24.4944H182.86V17.3815H180.86ZM181.86 23.4944H177.431V25.4944H181.86V23.4944ZM201.164 4.70711V0.505579H199.164V4.70711H201.164ZM200.164 1.50558H219.48V-0.494421H200.164V1.50558ZM218.48 0.505579V4.70711H220.48V0.505579H218.48ZM219.48 3.70711H214.442V5.70711H219.48V3.70711ZM214.442 3.70711C213.429 3.70711 212.526 4.04318 211.853 4.78495L213.335 6.12858C213.569 5.87081 213.898 5.70711 214.442 5.70711V3.70711ZM211.853 4.78495C211.205 5.49965 210.914 6.39844 210.914 7.39191H212.914C212.914 6.80472 213.077 6.41342 213.335 6.12858L211.853 4.78495ZM210.914 7.39191V24.4944H212.914V7.39191H210.914ZM211.914 23.4944H207.486V25.4944H211.914V23.4944ZM208.486 24.4944V7.53138H206.486V24.4944H208.486ZM208.486 7.53138C208.486 6.31488 208.746 5.69206 209.027 5.39934L207.584 4.01489C206.772 4.86117 206.486 6.1212 206.486 7.53138H208.486ZM208.305 3.70711H200.164V5.70711H208.305V3.70711ZM219.474 18.1722H223.902V16.1722H219.474V18.1722ZM222.902 17.1722C222.902 18.1892 223.285 19.0942 223.986 19.8548L225.456 18.4994C225.065 18.0745 224.902 17.643 224.902 17.1722H222.902ZM224 19.8697C224.66 20.5572 225.437 21.0713 226.323 21.4036L227.025 19.5309C226.423 19.3053 225.898 18.9593 225.442 18.4846L224 19.8697ZM226.323 21.4036C227.167 21.7203 228.018 21.8856 228.87 21.8856V19.8856C228.281 19.8856 227.668 19.772 227.025 19.5309L226.323 21.4036ZM228.87 21.8856C229.488 21.8856 230.104 21.8199 230.717 21.6894L230.301 19.7332C229.822 19.8352 229.345 19.8856 228.87 19.8856V21.8856ZM230.732 21.686C231.361 21.5419 231.965 21.3319 232.544 21.0559L231.682 19.2509C231.238 19.4631 230.773 19.625 230.286 19.7366L230.732 21.686ZM232.552 21.0518C233.217 20.7268 233.772 20.2666 234.198 19.6732L232.573 18.5068C232.349 18.8198 232.055 19.0687 231.674 19.255L232.552 21.0518ZM234.198 19.6732C234.656 19.0356 234.874 18.2988 234.874 17.5035H232.874C232.874 17.9169 232.766 18.2378 232.573 18.5068L234.198 19.6732ZM234.874 17.5035C234.874 16.7746 234.638 16.1087 234.167 15.5511L232.639 16.8408C232.796 17.0271 232.874 17.2328 232.874 17.5035H234.874ZM234.179 15.5654C233.76 15.0496 233.211 14.6597 232.571 14.3756L231.759 16.2032C232.166 16.384 232.442 16.5984 232.627 16.8265L234.179 15.5654ZM232.571 14.3756C231.992 14.1181 231.338 13.8929 230.614 13.6966L230.09 15.6269C230.738 15.8025 231.292 15.9958 231.759 16.2032L232.571 14.3756ZM230.633 13.7022C229.944 13.5001 229.215 13.3045 228.447 13.1155L227.969 15.0575C228.712 15.2403 229.412 15.4283 230.071 15.6214L230.633 13.7022ZM228.45 13.1163C227.721 12.9339 226.991 12.7344 226.261 12.5176L225.692 14.4349C226.449 14.6599 227.207 14.8671 227.965 15.0566L228.45 13.1163ZM226.261 12.5176C225.575 12.3139 224.916 12.0516 224.285 11.7307L223.379 13.5134C224.119 13.8898 224.89 14.197 225.692 14.4349L226.261 12.5176ZM224.303 11.7401C223.696 11.4157 223.167 11.0441 222.71 10.6276L221.363 12.106C221.952 12.6426 222.619 13.1077 223.361 13.504L224.303 11.7401ZM222.71 10.6276C222.308 10.2615 221.968 9.77681 221.702 9.14756L219.86 9.92496C220.222 10.7834 220.719 11.5191 221.363 12.106L222.71 10.6276ZM221.708 9.15989C221.462 8.55571 221.328 7.83862 221.328 6.99093H219.328C219.328 8.04934 219.496 9.02913 219.855 9.91264L221.708 9.15989ZM221.328 6.99093C221.328 6.01297 221.538 5.16146 221.94 4.41413L220.18 3.46593C219.606 4.53171 219.328 5.71413 219.328 6.99093H221.328ZM221.94 4.41413C222.358 3.63819 222.9 3.02761 223.566 2.56428L222.424 0.92247C221.486 1.5749 220.738 2.42875 220.18 3.46593L221.94 4.41413ZM223.569 2.56261C224.288 2.05889 225.094 1.675 225.994 1.41353L225.436 -0.506972C224.336 -0.187322 223.329 0.288857 222.422 0.924143L223.569 2.56261ZM226.004 1.41049C226.907 1.13766 227.849 1 228.835 1V-1C227.66 -1 226.522 -0.835477 225.425 -0.503934L226.004 1.41049ZM228.835 1C229.488 1 230.156 1.07758 230.842 1.2359L231.292 -0.712885C230.467 -0.903243 229.648 -1 228.835 -1V1ZM230.856 1.23909C231.53 1.38421 232.185 1.61253 232.822 1.92594L233.705 0.131241C232.924 -0.252697 232.115 -0.535766 231.278 -0.716075L230.856 1.23909ZM232.828 1.92875C233.473 2.24063 234.027 2.60877 234.498 3.02948L235.83 1.53817C235.208 0.982586 234.496 0.5139 233.699 0.128432L232.828 1.92875ZM234.505 3.0364C234.955 3.42939 235.321 3.9158 235.603 4.50886L237.409 3.65014C237.017 2.82525 236.489 2.11454 235.822 1.53124L234.505 3.0364ZM235.606 4.51467C235.875 5.07146 236.012 5.67172 236.012 6.32845H238.012C238.012 5.38128 237.812 4.48224 237.407 3.64433L235.606 4.51467ZM237.012 5.32845H232.549V7.32845H237.012V5.32845ZM233.533 6.15179C233.398 5.39833 232.957 4.79494 232.357 4.3329L231.137 5.91815C231.443 6.15346 231.537 6.35202 231.565 6.50512L233.533 6.15179ZM232.379 4.35066C231.838 3.90922 231.236 3.58798 230.577 3.39772L230.022 5.31915C230.41 5.43108 230.773 5.62123 231.115 5.90039L232.379 4.35066ZM230.603 3.40551C230.008 3.21631 229.418 3.11437 228.835 3.11437V5.11437C229.183 5.11437 229.569 5.17513 229.997 5.31136L230.603 3.40551ZM228.835 3.11437C228.143 3.11437 227.456 3.21637 226.775 3.41651L227.339 5.33524C227.844 5.1867 228.342 5.11437 228.835 5.11437V3.11437ZM226.792 3.41155C226.042 3.61743 225.37 3.99274 224.783 4.5226L226.123 6.00739C226.489 5.67718 226.886 5.45974 227.322 5.3402L226.792 3.41155ZM224.774 4.53089C224.107 5.14825 223.756 5.94225 223.756 6.85146H225.756C225.756 6.50545 225.87 6.2418 226.132 5.99909L224.774 4.53089ZM223.756 6.85146C223.756 7.55958 223.988 8.20632 224.443 8.74931L225.975 7.46408C225.826 7.28647 225.756 7.0964 225.756 6.85146H223.756ZM224.466 8.77566C224.896 9.2539 225.445 9.61609 226.075 9.8822L226.853 8.0397C226.438 7.86416 226.15 7.65684 225.952 7.43773L224.466 8.77566ZM226.075 9.8822C226.646 10.1233 227.287 10.3401 227.994 10.5351L228.526 8.60714C227.885 8.4302 227.328 8.24028 226.853 8.0397L226.075 9.8822ZM228.01 10.5393C228.687 10.7144 229.398 10.8952 230.145 11.0817L230.63 9.14143C229.888 8.95606 229.182 8.77658 228.51 8.60298L228.01 10.5393ZM230.148 11.0826C230.888 11.2648 231.623 11.4641 232.351 11.6804L232.921 9.76311C232.162 9.53779 231.397 9.33027 230.626 9.14056L230.148 11.0826ZM232.355 11.6816C233.047 11.8837 233.697 12.1485 234.309 12.4754L235.252 10.7115C234.515 10.3178 233.736 10.0015 232.917 9.76192L232.355 11.6816ZM234.321 12.4817C234.923 12.7931 235.449 13.1568 235.903 13.5704L237.25 12.092C236.657 11.5526 235.986 11.0911 235.24 10.7052L234.321 12.4817ZM235.912 13.5787C236.304 13.9276 236.634 14.398 236.887 15.0207L238.74 14.268C238.389 13.403 237.894 12.6647 237.24 12.0838L235.912 13.5787ZM236.892 15.0331C237.146 15.6352 237.285 16.3424 237.285 17.1722H239.285C239.285 16.1192 239.109 15.1412 238.735 14.2557L236.892 15.0331ZM237.285 17.1722C237.285 18.0046 237.125 18.7738 236.811 19.4904L238.643 20.2934C239.072 19.3131 239.285 18.2693 239.285 17.1722H237.285ZM236.806 19.501C236.493 20.2383 236.075 20.8614 235.555 21.3815L236.969 22.7957C237.681 22.0837 238.24 21.2424 238.647 20.2828L236.806 19.501ZM235.562 21.3748C235.014 21.9118 234.373 22.3882 233.631 22.8015L234.605 24.5486C235.49 24.0553 236.278 23.474 236.963 22.8024L235.562 21.3748ZM233.635 22.7991C232.91 23.1983 232.144 23.4978 231.333 23.6979L231.812 25.6396C232.791 25.398 233.721 25.035 234.6 24.551L233.635 22.7991ZM231.333 23.6979C230.515 23.8997 229.695 24 228.87 24V26C229.859 26 230.84 25.8795 231.812 25.6396L231.333 23.6979ZM228.87 24C228.059 24 227.244 23.8999 226.425 23.6979L225.946 25.6396C226.917 25.8792 227.892 26 228.87 26V24ZM226.425 23.6979C225.613 23.4976 224.839 23.1973 224.1 22.7962L223.146 24.5539C224.034 25.036 224.968 25.3983 225.946 25.6396L226.425 23.6979ZM224.115 22.8045C223.387 22.3931 222.751 21.9125 222.203 21.364L220.789 22.7782C221.472 23.4618 222.255 24.0504 223.131 24.5456L224.115 22.8045ZM222.203 21.364C221.68 20.8415 221.255 20.2148 220.93 19.473L219.098 20.276C219.517 21.2311 220.079 22.0688 220.789 22.7782L222.203 21.364ZM220.934 19.4836C220.628 18.763 220.474 17.9956 220.474 17.1722H218.474C218.474 18.2549 218.679 19.2891 219.094 20.2654L220.934 19.4836ZM2.45003 9.09229L10.1437 1.39865L8.72947 -0.0155679L1.03582 7.67808L2.45003 9.09229ZM9.43657 0.691539C8.653 0.0702452 8.65263 0.070713 8.65222 0.0712263C8.65204 0.0714584 8.65159 0.0720195 8.65123 0.0724843C8.65049 0.0734149 8.64961 0.0745295 8.64859 0.0758266C8.64656 0.0784207 8.64395 0.0817452 8.6408 0.0857887C8.63451 0.093875 8.62603 0.104841 8.61552 0.118596C8.59451 0.146099 8.56536 0.184792 8.52932 0.23394C8.45731 0.332168 8.3575 0.472581 8.24002 0.649288C8.00574 1.00167 7.69755 1.50388 7.39898 2.10818C6.81378 3.2926 6.20839 4.98323 6.39086 6.74526C6.58197 8.59075 7.62172 10.3586 10.01 11.6179C12.3358 12.8443 15.9371 13.593 21.338 13.593V11.593C16.0699 11.593 12.849 10.8539 10.9429 9.84882C9.0992 8.87665 8.49722 7.66913 8.38022 6.53926C8.25458 5.32593 8.67471 4.0412 9.19206 2.9941C9.44476 2.48264 9.7071 2.05504 9.90553 1.75657C10.0044 1.60785 10.0865 1.49256 10.1423 1.41645C10.1702 1.37843 10.1914 1.3503 10.2048 1.33276C10.2115 1.324 10.2162 1.3179 10.2188 1.31454C10.2201 1.31286 10.2209 1.31188 10.2211 1.31159C10.2213 1.31144 10.2212 1.31147 10.2211 1.31168C10.221 1.31178 10.2208 1.31207 10.2207 1.31212C10.2205 1.31246 10.2202 1.31283 9.43657 0.691539ZM20.6309 11.8859C18.307 14.2098 15.3316 17.1851 12.9373 19.5795C11.7401 20.7767 10.6881 21.8287 9.93547 22.5813C9.55914 22.9576 9.25765 23.2591 9.05023 23.4666C8.94651 23.5703 8.86633 23.6505 8.81207 23.7047C8.78493 23.7319 8.76429 23.7525 8.75042 23.7664C8.74349 23.7733 8.73824 23.7785 8.73474 23.782C8.733 23.7838 8.73167 23.7851 8.73079 23.786C8.7303 23.7865 8.73008 23.7867 8.7298 23.787C8.72969 23.7871 8.72961 23.7872 8.72955 23.7872C8.7295 23.7873 8.72947 23.7873 9.43657 24.4944C10.1437 25.2015 10.1437 25.2015 10.1438 25.2014C10.1438 25.2014 10.1439 25.2013 10.144 25.2012C10.1442 25.201 10.1446 25.2006 10.145 25.2002C10.1459 25.1993 10.1472 25.198 10.149 25.1963C10.1525 25.1927 10.1577 25.1875 10.1646 25.1806C10.1785 25.1667 10.1991 25.1461 10.2263 25.1189C10.2805 25.0647 10.3607 24.9845 10.4644 24.8808C10.6719 24.6734 10.9734 24.3719 11.3497 23.9955C12.1023 23.2429 13.1543 22.1909 14.3515 20.9937C16.7459 18.5993 19.7212 15.624 22.0451 13.3001L20.6309 11.8859ZM10.1437 23.7873L2.45003 16.0937L1.03582 17.5079L8.72947 25.2015L10.1437 23.7873ZM1.03582 7.67808C-1.6786 10.3925 -1.67861 14.7935 1.03582 17.5079L2.45003 16.0937C0.516655 14.1603 0.516656 11.0257 2.45003 9.09229L1.03582 7.67808ZM22.0451 13.3001C24.369 10.9762 27.3444 8.00083 29.7388 5.60644C30.936 4.40925 31.9879 3.3573 32.7406 2.60465C33.1169 2.22832 33.4184 1.92682 33.6258 1.7194C33.7295 1.6157 33.8097 1.5355 33.864 1.48124C33.8911 1.45409 33.9117 1.43348 33.9256 1.4196C33.9325 1.41268 33.9378 1.4074 33.9413 1.40392C33.9431 1.40216 33.9443 1.40086 33.9452 1.39997C33.9456 1.39964 33.9461 1.39909 33.9462 1.39898C33.9463 1.39887 33.9464 1.39878 33.9465 1.39873C33.9465 1.39867 33.9466 1.39865 33.2395 0.691539C32.5324 -0.0155678 32.5323 -0.0155401 32.5323 -0.0154849C32.5322 -0.0154296 32.5321 -0.0153467 32.532 -0.0152364C32.5316 -0.014849 32.5316 -0.0148513 32.531 -0.0142443C32.5301 -0.0132754 32.5289 -0.012133 32.5271 -0.0102927C32.5236 -0.00678996 32.5183 -0.00154953 32.5114 0.00538219C32.4976 0.0192249 32.4769 0.0399213 32.4498 0.0670287C32.3955 0.121305 32.3153 0.201466 32.2116 0.30519C32.0042 0.512603 31.7027 0.814116 31.3263 1.19044C30.5737 1.94309 29.5217 2.99503 28.3246 4.19223C25.9302 6.58661 22.9548 9.56197 20.6309 11.8859L22.0451 13.3001ZM32.5324 1.39865L40.226 9.0923L41.6402 7.67808L33.9466 -0.0155679L32.5324 1.39865ZM40.226 16.0937L32.5324 23.7873L33.9466 25.2015L41.6402 17.5079L40.226 16.0937ZM33.2395 24.4944C34.023 25.1157 34.0234 25.1153 34.0238 25.1147C34.024 25.1145 34.0244 25.1139 34.0248 25.1135C34.0255 25.1125 34.0264 25.1114 34.0274 25.1101C34.0295 25.1075 34.0321 25.1042 34.0352 25.1002C34.0415 25.0921 34.05 25.0811 34.0605 25.0674C34.0815 25.0399 34.1107 25.0012 34.1467 24.952C34.2187 24.8538 34.3185 24.7134 34.436 24.5367C34.6703 24.1843 34.9785 23.6821 35.2771 23.0778C35.8623 21.8934 36.4676 20.2027 36.2852 18.4407C36.0941 16.5952 35.0543 14.8274 32.666 13.568C30.3402 12.3416 26.739 11.593 21.338 11.593V13.593C26.6061 13.593 29.827 14.332 31.7332 15.3371C33.5768 16.3093 34.1788 17.5168 34.2958 18.6467C34.4215 19.86 34.0013 21.1448 33.484 22.1919C33.2313 22.7033 32.9689 23.1309 32.7705 23.4294C32.6716 23.5781 32.5895 23.6934 32.5337 23.7695C32.5059 23.8075 32.4846 23.8357 32.4712 23.8532C32.4645 23.862 32.4598 23.8681 32.4572 23.8714C32.4559 23.8731 32.4551 23.8741 32.4549 23.8744C32.4548 23.8745 32.4548 23.8745 32.455 23.8743C32.455 23.8742 32.4553 23.8739 32.4553 23.8738C32.4556 23.8735 32.4559 23.8731 33.2395 24.4944ZM40.226 9.0923C42.1594 11.0257 42.1594 14.1603 40.226 16.0937L41.6402 17.5079C44.3546 14.7935 44.3546 10.3925 41.6402 7.67808L40.226 9.0923ZM124.477 24.4944V0.505579H122.477V24.4944H124.477Z" fill="black" mask="url(#path-1-inside-1_203_49)"/>
</svg>
