<svg width="19" height="21" viewBox="0 0 19 21" fill="none" xmlns="http://www.w3.org/2000/svg">
<path d="M11.12 16.0227L6.92099 13.7327C6.37279 14.3188 5.66098 14.7264 4.87807 14.9026C4.09515 15.0788 3.27734 15.0154 2.53091 14.7208C1.78448 14.4261 1.14395 13.9137 0.69256 13.2502C0.241168 12.5867 -0.000213623 11.8027 -0.000213623 11.0002C-0.000213623 10.1977 0.241168 9.41378 0.69256 8.75027C1.14395 8.08676 1.78448 7.57437 2.53091 7.27968C3.27734 6.98498 4.09515 6.92162 4.87807 7.09783C5.66098 7.27403 6.37279 7.68165 6.92099 8.26771L11.121 5.97772C10.8825 5.03379 10.9965 4.0353 11.4416 3.16942C11.8867 2.30353 12.6323 1.6297 13.5387 1.27422C14.445 0.918737 15.4499 0.90602 16.365 1.23845C17.28 1.57088 18.0425 2.22563 18.5093 3.07998C18.9761 3.93432 19.1154 4.9296 18.9009 5.87926C18.6864 6.82892 18.1329 7.66775 17.3442 8.23852C16.5555 8.8093 15.5857 9.07283 14.6166 8.97971C13.6475 8.88659 12.7456 8.44323 12.08 7.73272L7.87999 10.0227C8.04119 10.6641 8.04119 11.3354 7.87999 11.9767L12.079 14.2667C12.7446 13.5562 13.6465 13.1128 14.6156 13.0197C15.5847 12.9266 16.5545 13.1901 17.3432 13.7609C18.1319 14.3317 18.6854 15.1705 18.8999 16.1202C19.1144 17.0698 18.9751 18.0651 18.5083 18.9195C18.0415 19.7738 17.279 20.4286 16.364 20.761C15.4489 21.0934 14.444 21.0807 13.5377 20.7252C12.6313 20.3697 11.8857 19.6959 11.4406 18.83C10.9955 17.9641 10.8815 16.9656 11.12 16.0217V16.0227ZM3.99999 12.9997C4.53043 12.9997 5.03913 12.789 5.41421 12.4139C5.78928 12.0389 5.99999 11.5301 5.99999 10.9997C5.99999 10.4693 5.78928 9.96057 5.41421 9.5855C5.03913 9.21043 4.53043 8.99971 3.99999 8.99971C3.46956 8.99971 2.96085 9.21043 2.58578 9.5855C2.21071 9.96057 1.99999 10.4693 1.99999 10.9997C1.99999 11.5301 2.21071 12.0389 2.58578 12.4139C2.96085 12.789 3.46956 12.9997 3.99999 12.9997ZM15 6.99972C15.5304 6.99972 16.0391 6.789 16.4142 6.41393C16.7893 6.03886 17 5.53015 17 4.99972C17 4.46928 16.7893 3.96057 16.4142 3.5855C16.0391 3.21043 15.5304 2.99972 15 2.99972C14.4696 2.99972 13.9609 3.21043 13.5858 3.5855C13.2107 3.96057 13 4.46928 13 4.99972C13 5.53015 13.2107 6.03886 13.5858 6.41393C13.9609 6.789 14.4696 6.99972 15 6.99972ZM15 18.9997C15.5304 18.9997 16.0391 18.789 16.4142 18.4139C16.7893 18.0389 17 17.5301 17 16.9997C17 16.4693 16.7893 15.9606 16.4142 15.5855C16.0391 15.2104 15.5304 14.9997 15 14.9997C14.4696 14.9997 13.9609 15.2104 13.5858 15.5855C13.2107 15.9606 13 16.4693 13 16.9997C13 17.5301 13.2107 18.0389 13.5858 18.4139C13.9609 18.789 14.4696 18.9997 15 18.9997Z" fill="white"/>
</svg>
