<svg width="64" height="64" viewBox="0 0 64 64" fill="none" xmlns="http://www.w3.org/2000/svg">
<rect width="64" height="64" rx="32" fill="#2A1A80"/>
<path d="M42.0063 15.2739C35.9079 14.1092 29.5749 14.1092 23.4764 15.2739C20.7791 15.8562 17.378 19.1171 16.7916 21.6792C15.7361 26.6871 15.7361 31.8114 16.7916 36.8192C17.4953 39.3814 20.8963 42.6423 23.4764 43.2246C23.5937 43.2246 23.711 43.3411 23.711 43.4576V50.7946C23.711 51.144 24.1801 51.3769 24.4147 51.0276L27.933 47.4173C27.933 47.4173 30.7476 44.5057 31.2168 44.0399C31.2168 44.0399 31.334 43.9234 31.4513 43.9234C34.9696 44.0399 38.6052 43.6905 42.1236 43.1082C44.8209 42.5259 48.222 39.2649 48.8084 36.7028C49.8639 31.6949 49.8639 26.5706 48.8084 21.5628C48.1047 19.1171 44.7037 15.8562 42.0063 15.2739ZM42.1236 37.1686C41.5372 38.3333 40.8335 39.2649 39.6607 39.8472C39.3089 39.9637 38.9571 40.0802 38.6052 40.1966C38.1361 40.0802 37.7843 39.9637 37.4325 39.8472C33.6796 38.3333 30.1613 36.2369 27.3466 33.2089C25.822 31.462 24.5319 29.4822 23.4764 27.3859C23.0073 26.3377 22.5382 25.406 22.1864 24.3579C21.8346 23.4262 22.4209 22.4945 23.0073 21.7957C23.5937 21.0969 24.2974 20.6311 25.1183 20.2817C25.7047 19.9323 26.2911 20.1652 26.7602 20.6311C27.6984 21.7957 28.6366 22.9603 29.3403 24.2414C29.8094 25.0566 29.6921 25.9883 28.8712 26.5706C28.6366 26.6871 28.5194 26.8036 28.2848 27.0365C28.1675 27.1529 27.933 27.2694 27.8157 27.5023C27.5811 27.8517 27.5811 28.2011 27.6984 28.5505C28.6366 31.2291 30.3958 33.3254 33.0932 34.49C33.5623 34.7229 33.9141 34.8394 34.5005 34.8394C35.3215 34.7229 35.6733 33.7912 36.2597 33.3254C36.8461 32.8596 37.5497 32.8596 38.2534 33.2089C38.8398 33.5583 39.4262 34.0242 40.1298 34.49C40.7162 34.9559 41.3026 35.3052 41.889 35.7711C42.2408 36.004 42.3581 36.5863 42.1236 37.1686ZM37.1979 28.434C36.9633 28.434 37.0806 28.434 37.1979 28.434C36.7288 28.434 36.6115 28.2011 36.4942 27.8517C36.4942 27.6188 36.4942 27.2694 36.377 27.0365C36.2597 26.5706 36.0251 26.1048 35.556 25.7554C35.3215 25.6389 35.0869 25.5225 34.8524 25.406C34.5005 25.2895 34.266 25.2896 33.9141 25.2896C33.5623 25.1731 33.445 24.9402 33.445 24.5908C33.445 24.3579 33.7969 24.1249 34.0314 24.1249C35.9079 24.2414 37.3152 25.2895 37.5497 27.5023C37.5497 27.6188 37.5497 27.8517 37.5497 27.9682C37.5497 28.2011 37.4325 28.434 37.1979 28.434ZM36.0251 23.3097C35.4387 23.0768 34.8524 22.8439 34.1487 22.7274C33.9141 22.7274 33.5623 22.6109 33.3277 22.6109C32.9759 22.6109 32.7414 22.378 32.8586 22.0286C32.8586 21.6792 33.0932 21.4463 33.445 21.5628C34.6178 21.6792 35.6733 21.9122 36.7288 22.378C38.8398 23.4262 40.0126 25.1731 40.3644 27.5023C40.3644 27.6188 40.3644 27.7352 40.3644 27.8517C40.3644 28.0846 40.3644 28.3175 40.3644 28.6669C40.3644 28.7834 40.3644 28.8999 40.3644 29.0163C40.2471 29.4822 39.4262 29.5986 39.3089 29.0163C39.3089 28.8999 39.1916 28.6669 39.1916 28.5505C39.1916 27.5023 38.9571 26.4542 38.488 25.5225C37.7843 24.4743 36.9633 23.7755 36.0251 23.3097ZM42.3581 30.2974C42.0063 30.2974 41.7717 29.948 41.7717 29.5986C41.7717 28.8999 41.6545 28.2011 41.5372 27.5023C41.0681 23.7755 38.0189 20.7475 34.3832 20.1652C33.7969 20.0488 33.2105 20.0488 32.7414 19.9323C32.3895 19.9323 31.9204 19.9323 31.8031 19.4665C31.6859 19.1171 32.0377 18.7677 32.3895 18.7677C32.5068 18.7677 32.6241 18.7677 32.6241 18.7677C32.8586 18.7677 37.4325 18.8842 32.6241 18.7677C37.5497 18.8842 41.6544 22.1451 42.4754 27.0365C42.5927 27.8517 42.7099 28.6669 42.7099 29.5986C42.9445 29.948 42.7099 30.2974 42.3581 30.2974Z" fill="white"/>
</svg>
