<svg width="64" height="64" viewBox="0 0 64 64" fill="none" xmlns="http://www.w3.org/2000/svg">
<rect width="64" height="64" rx="32" fill="black"/>
<path d="M42.0063 15.2734C35.9079 14.1087 29.5749 14.1087 23.4764 15.2734C20.7791 15.8557 17.378 19.1166 16.7916 21.6788C15.7361 26.6866 15.7361 31.8109 16.7916 36.8188C17.4953 39.3809 20.8963 42.6418 23.4764 43.2241C23.5937 43.2241 23.711 43.3406 23.711 43.4571V50.7942C23.711 51.1435 24.1801 51.3765 24.4147 51.0271L27.933 47.4168C27.933 47.4168 30.7476 44.5052 31.2168 44.0394C31.2168 44.0394 31.334 43.9229 31.4513 43.9229C34.9696 44.0394 38.6052 43.69 42.1236 43.1077C44.8209 42.5254 48.222 39.2645 48.8084 36.7023C49.8639 31.6944 49.8639 26.5701 48.8084 21.5623C48.1047 19.1166 44.7037 15.8557 42.0063 15.2734ZM42.1236 37.1681C41.5372 38.3328 40.8335 39.2645 39.6607 39.8468C39.3089 39.9632 38.9571 40.0797 38.6052 40.1961C38.1361 40.0797 37.7843 39.9632 37.4325 39.8468C33.6796 38.3328 30.1613 36.2365 27.3466 33.2085C25.822 31.4615 24.5319 29.4817 23.4764 27.3854C23.0073 26.3372 22.5382 25.4055 22.1864 24.3574C21.8346 23.4257 22.4209 22.494 23.0073 21.7952C23.5937 21.0964 24.2974 20.6306 25.1183 20.2812C25.7047 19.9318 26.2911 20.1648 26.7602 20.6306C27.6984 21.7952 28.6366 22.9598 29.3403 24.2409C29.8094 25.0561 29.6921 25.9878 28.8712 26.5701C28.6366 26.6866 28.5194 26.8031 28.2848 27.036C28.1675 27.1524 27.933 27.2689 27.8157 27.5018C27.5811 27.8512 27.5811 28.2006 27.6984 28.55C28.6366 31.2286 30.3958 33.3249 33.0932 34.4895C33.5623 34.7224 33.9141 34.8389 34.5005 34.8389C35.3215 34.7225 35.6733 33.7908 36.2597 33.3249C36.8461 32.8591 37.5497 32.8591 38.2534 33.2085C38.8398 33.5578 39.4262 34.0237 40.1298 34.4895C40.7162 34.9554 41.3026 35.3048 41.889 35.7706C42.2408 36.0035 42.3581 36.5858 42.1236 37.1681ZM37.1979 28.4335C36.9633 28.4335 37.0806 28.4335 37.1979 28.4335C36.7288 28.4335 36.6115 28.2006 36.4942 27.8512C36.4942 27.6183 36.4942 27.2689 36.377 27.036C36.2597 26.5701 36.0251 26.1043 35.556 25.7549C35.3215 25.6384 35.0869 25.522 34.8524 25.4055C34.5005 25.2891 34.266 25.2891 33.9141 25.2891C33.5623 25.1726 33.445 24.9397 33.445 24.5903C33.445 24.3574 33.7969 24.1244 34.0314 24.1244C35.9079 24.2409 37.3152 25.2891 37.5497 27.5018C37.5497 27.6183 37.5497 27.8512 37.5497 27.9677C37.5497 28.2006 37.4325 28.4335 37.1979 28.4335ZM36.0251 23.3092C35.4387 23.0763 34.8524 22.8434 34.1487 22.7269C33.9141 22.7269 33.5623 22.6104 33.3277 22.6104C32.9759 22.6104 32.7414 22.3775 32.8586 22.0281C32.8586 21.6788 33.0932 21.4458 33.445 21.5623C34.6178 21.6788 35.6733 21.9117 36.7288 22.3775C38.8398 23.4257 40.0126 25.1726 40.3644 27.5018C40.3644 27.6183 40.3644 27.7348 40.3644 27.8512C40.3644 28.0841 40.3644 28.3171 40.3644 28.6664C40.3644 28.7829 40.3644 28.8994 40.3644 29.0158C40.2471 29.4817 39.4262 29.5981 39.3089 29.0158C39.3089 28.8994 39.1916 28.6664 39.1916 28.55C39.1916 27.5018 38.9571 26.4537 38.488 25.522C37.7843 24.4738 36.9633 23.7751 36.0251 23.3092ZM42.3581 30.2969C42.0063 30.2969 41.7717 29.9475 41.7717 29.5981C41.7717 28.8994 41.6545 28.2006 41.5372 27.5018C41.0681 23.7751 38.0189 20.7471 34.3832 20.1648C33.7969 20.0483 33.2105 20.0483 32.7414 19.9318C32.3895 19.9318 31.9204 19.9318 31.8031 19.466C31.6859 19.1166 32.0377 18.7672 32.3895 18.7672C32.5068 18.7672 32.6241 18.7672 32.6241 18.7672C32.8586 18.7672 37.4325 18.8837 32.6241 18.7672C37.5497 18.8837 41.6544 22.1446 42.4754 27.036C42.5927 27.8512 42.7099 28.6664 42.7099 29.5981C42.9445 29.9475 42.7099 30.2969 42.3581 30.2969Z" fill="white"/>
</svg>
