<svg width="64" height="64" viewBox="0 0 64 64" fill="none" xmlns="http://www.w3.org/2000/svg">
<rect width="64" height="64" rx="32" fill="#2A1A80"/>
<path d="M44.6829 19.3004C41.5219 16.1504 37.3073 14.4004 32.8585 14.4004C23.6098 14.4004 16.1171 21.8671 16.1171 31.0837C16.1171 34.0004 16.9366 36.9171 18.3415 39.3671L16 48.0004L24.8976 45.6671C27.3561 46.9504 30.0488 47.6504 32.8585 47.6504C42.1073 47.6504 49.6 40.1837 49.6 30.9671C49.4829 26.6504 47.8439 22.4504 44.6829 19.3004ZM40.9366 37.0337C40.5854 37.9671 38.9463 38.9004 38.1268 39.0171C37.4244 39.1337 36.4878 39.1337 35.5512 38.9004C34.9659 38.6671 34.1463 38.4337 33.2098 37.9671C28.9951 36.2171 26.3024 32.0171 26.0683 31.6671C25.8341 31.4337 24.3122 29.4504 24.3122 27.3504C24.3122 25.2504 25.3659 24.3171 25.7171 23.8504C26.0683 23.3837 26.5366 23.3837 26.8878 23.3837C27.122 23.3837 27.4732 23.3837 27.7073 23.3837C27.9415 23.3837 28.2927 23.2671 28.6439 24.0837C28.9951 24.9004 29.8146 27.0004 29.9317 27.1171C30.0488 27.3504 30.0488 27.5837 29.9317 27.8171C29.8146 28.0504 29.6976 28.2837 29.4634 28.5171C29.2293 28.7504 28.9951 29.1004 28.878 29.2171C28.6439 29.4504 28.4098 29.6837 28.6439 30.0337C28.878 30.5004 29.6976 31.7837 30.9854 32.9504C32.6244 34.3504 33.9122 34.8171 34.3805 35.0504C34.8488 35.2837 35.0829 35.1671 35.3171 34.9337C35.5512 34.7004 36.3707 33.7671 36.6049 33.3004C36.839 32.8337 37.1902 32.9504 37.5415 33.0671C37.8927 33.1837 40 34.2337 40.3512 34.4671C40.8195 34.7004 41.0537 34.8171 41.1707 34.9337C41.2878 35.2837 41.2878 36.1004 40.9366 37.0337Z" fill="white"/>
</svg>
